<svg width="17" height="22" viewBox="0 0 17 22" fill="none" xmlns="http://www.w3.org/2000/svg">
<path fill-rule="evenodd" clip-rule="evenodd" d="M14.9849 6.875H1.28339V19.25C1.28339 19.6147 1.40369 19.9644 1.61782 20.2223C1.83195 20.4801 2.12236 20.625 2.42519 20.625H13.8431C14.1459 20.625 14.4364 20.4801 14.6505 20.2223C14.8646 19.9644 14.9849 19.6147 14.9849 19.25V6.875ZM0.141602 5.5V19.25C0.141602 19.9793 0.382193 20.6788 0.810448 21.1945C1.2387 21.7103 1.81954 22 2.42519 22H13.8431C14.4488 22 15.0296 21.7103 15.4579 21.1945C15.8861 20.6788 16.1267 19.9793 16.1267 19.25V5.5H0.141602Z" fill="#FD585E"/>
<path d="M8.13397 2.0625C7.37691 2.0625 6.65087 2.42466 6.11555 3.06932C5.58023 3.71398 5.27949 4.58832 5.27949 5.5H4.1377C4.1377 4.22365 4.55873 2.99957 5.30818 2.09705C6.05762 1.19453 7.07409 0.6875 8.13397 0.6875C9.19385 0.6875 10.2103 1.19453 10.9598 2.09705C11.7092 2.99957 12.1302 4.22365 12.1302 5.5H10.9885C10.9885 4.58832 10.6877 3.71398 10.1524 3.06932C9.61707 2.42466 8.89103 2.0625 8.13397 2.0625Z" fill="#FD585E"/>
</svg>
