<?xml version="1.0" encoding="utf-8"?>
<!-- Generator: Adobe Illustrator 23.0.2, SVG Export Plug-In . SVG Version: 6.00 Build 0)  -->
<svg version="1.1" id="Слой_1" xmlns="http://www.w3.org/2000/svg" xmlns:xlink="http://www.w3.org/1999/xlink" x="0px" y="0px"
	 viewBox="0 0 22 21" style="enable-background:new 0 0 22 21;" xml:space="preserve">
<style type="text/css">
	.st0{opacity:0;fill:#EB5961;fill-opacity:0.6;}
	.st1{fill:#EB5961;fill-opacity:0.6;}
</style>
<path class="st0" d="M19.8,6.3h-4.6c0.2-0.1,0.4-0.3,0.6-0.5c0.5-0.5,0.8-1.2,0.8-2s-0.3-1.5-0.8-2c-0.3-0.3-0.6-0.5-0.9-0.6
	C14.6,1.1,14.2,1,13.8,1c-0.7,0-1.5,0.3-2,0.8c-0.4,0.4-0.6,0.9-0.8,1.7c-0.2-0.8-0.5-1.3-0.8-1.7C9.6,1.3,8.9,1,8.2,1
	s-1.5,0.3-2,0.8s-0.8,1.2-0.8,2s0.3,1.5,0.8,2C6.4,6,6.6,6.2,6.8,6.3H2.2c-0.3,0-0.6,0.1-0.8,0.4S1,7.2,1,7.5v3.2
	c0,0.3,0.1,0.6,0.4,0.9c0.2,0.2,0.5,0.4,0.8,0.4h0.4v6.8c0,0.3,0.1,0.6,0.4,0.9C3.2,19.8,3.5,20,3.8,20h14.4c0.3,0,0.6-0.1,0.8-0.4
	c0.2-0.2,0.4-0.5,0.4-0.9v-6.8h0.4c0.3,0,0.6-0.1,0.8-0.4c0.2-0.2,0.4-0.5,0.4-0.9V7.5c0-0.3-0.1-0.6-0.4-0.9
	C20.4,6.4,20.1,6.3,19.8,6.3z M12.4,2.4c0.4-0.4,0.9-0.6,1.4-0.6c0.3,0,0.5,0.1,0.8,0.2c0.2,0.1,0.5,0.2,0.6,0.4
	c0.2,0.2,0.3,0.4,0.4,0.7c0.1,0.2,0.2,0.5,0.2,0.8c0,0.3-0.1,0.5-0.2,0.8c-0.1,0.2-0.2,0.5-0.4,0.7c-0.7,0.7-2.7,1-3.8,1
	C11.5,5.2,11.7,3.2,12.4,2.4z M6.8,2.4C7.1,2,7.6,1.8,8.2,1.8s1,0.2,1.4,0.6c0.7,0.7,1,2.8,1,3.9c-1.1,0-3.1-0.3-3.8-1
	C6.4,4.9,6.2,4.4,6.2,3.8C6.2,3.3,6.4,2.8,6.8,2.4z M1.8,10.7V7.5c0-0.1,0-0.2,0.1-0.3C2,7.1,2.1,7.1,2.2,7.1h8.4v4H2.2
	c-0.1,0-0.2,0-0.3-0.1C1.8,10.9,1.8,10.8,1.8,10.7z M3.4,18.8v-6.8h7.2v7.2H3.8c-0.1,0-0.2,0-0.3-0.1C3.4,19,3.4,18.9,3.4,18.8z
	 M18.6,18.8c0,0.1,0,0.2-0.1,0.3c-0.1,0.1-0.2,0.1-0.3,0.1h-6.8v-7.2h7.2V18.8z M20.2,10.7c0,0.1,0,0.2-0.1,0.3
	c-0.1,0.1-0.2,0.1-0.3,0.1h-8.4v-4h8.4c0.1,0,0.2,0,0.3,0.1c0.1,0.1,0.1,0.2,0.1,0.3V10.7z"/>
<path class="st1" d="M19.9,5.8l-3.4,0c0.2-0.2,0.3-0.4,0.4-0.7c0.3-0.8,0.3-1.1,0.2-1.5c0-0.7-0.5-1.6-1-2.1
	c-0.3-0.3-0.7-0.5-1.1-0.7c-0.3-0.1-0.7-0.2-1.1-0.2c-0.6,0-1.5,0.2-2.1,0.6c-0.2,0.2-0.3,0.2-0.9,1c-0.2-0.3-0.1-0.2-0.4-0.6
	c-0.5-0.5-1.3-1-2-1C7.8,0.5,7,0.6,6.4,1C5.8,1.4,5.5,1.7,5.2,2.5C5.1,2.6,4.7,3.5,5,4.7c0.2,0.4,0.3,0.9,0.5,1.2l-3.4,0
	c-0.3,0-0.9,0.3-1.2,0.6C0.7,6.7,0.5,6.9,0.5,7.5v2.9c0,0.3-0.1,0.6,0.2,1c0.2,0.3,0.4,0.6,0.8,0.8l0.6,0.2l0,6.4
	c0,0.3,0.2,0.8,0.4,1.1c0.2,0.2,0.7,0.6,1.1,0.6h14.8c0.3,0,0.8-0.3,1-0.5c0.2-0.2,0.4-0.8,0.4-1.1l0-6.4l0.1,0
	c0.3,0,0.8-0.2,1.1-0.6c0.3-0.3,0.4-0.7,0.4-1V7.4c0-0.6-0.3-1-0.6-1.2C20.7,6,20.2,5.8,19.9,5.8z M12.9,2.7
	c0.2-0.2,0.3-0.2,0.6-0.3c0.3-0.1,0.5,0,0.5,0c0.2,0,0.2,0,0.3,0.1c0.2,0.1,0.4,0.2,0.5,0.3C15,2.9,15.1,3,15.2,3.1
	c0.1,0.2,0.2,0.4,0.2,0.8c0,0.3-0.2,0.8-0.4,0.9c-0.4,0.6-1.9,0.9-3,0.9C12.1,4.4,12.3,3.2,12.9,2.7z M7,3c0.2-0.3,0.6-0.6,1-0.6
	c0.5,0,0.9,0.1,1.3,0.5c0.6,0.8,0.8,2.8,0.8,2.9C8.6,5.6,7.5,5.3,7.2,5C6.8,4.6,6.7,4.3,6.7,3.9C6.7,3.4,6.8,3.3,7,3z M2.3,10.6
	l0-2.8c0-0.1,0-0.1,0.1-0.2c0.1-0.1,0.3,0,0.4,0l7.4,0l0,3 M3.9,18.7v-6.2l6.2,0l0,6.2H3.9 M18.1,18.7h-6.2l0-6.2h6.2 M19.7,7.6
	l0,2.1c0,0.1,0,0.7,0,1c0,0-1.4,0-1.5,0l-6.3,0l0-3.1"/>
</svg>
