<svg width="22" height="21" viewBox="0 0 22 21" fill="none" xmlns="http://www.w3.org/2000/svg">
<path d="M19.8 6.26144H15.1839C15.4129 6.14269 15.6233 5.99061 15.8083 5.8101C16.3334 5.28168 16.6284 4.56499 16.6284 3.81769C16.6284 3.07039 16.3334 2.3537 15.8083 1.82528C15.5483 1.56364 15.2396 1.35609 14.8999 1.21448C14.5602 1.07288 14.1961 1 13.8284 1C13.0858 1 12.3736 1.29686 11.8485 1.82528C11.4925 2.18353 11.2089 2.74506 11 3.4995C10.791 2.74506 10.5074 2.18353 10.1515 1.82528C9.6264 1.29686 8.91421 1 8.1716 1C7.42899 1 6.7168 1.29686 6.1917 1.82528C5.6666 2.3537 5.3716 3.07039 5.3716 3.81769C5.3716 4.56499 5.6666 5.28168 6.1917 5.8101C6.37666 5.99061 6.58706 6.14269 6.8161 6.26144H2.2C1.88185 6.26178 1.57682 6.38912 1.35185 6.61551C1.12688 6.8419 1.00034 7.14885 1 7.46902V10.6892C1.00034 11.0094 1.12688 11.3164 1.35185 11.5427C1.57682 11.7691 1.88185 11.8965 2.2 11.8968H2.6V18.7398C2.60034 19.0599 2.72688 19.3669 2.95185 19.5933C3.17682 19.8197 3.48185 19.947 3.8 19.9474H18.2C18.5182 19.947 18.8232 19.8197 19.0481 19.5933C19.2731 19.3669 19.3997 19.0599 19.4 18.7398V11.8968H19.8C20.1182 11.8965 20.4232 11.7691 20.6481 11.5427C20.8731 11.3164 20.9997 11.0094 21 10.6892V7.46902C20.9997 7.14885 20.8731 6.8419 20.6481 6.61551C20.4232 6.38912 20.1182 6.26178 19.8 6.26144ZM12.4142 2.39456C12.7893 2.01711 13.298 1.80505 13.8284 1.80504C14.0911 1.80504 14.3511 1.85709 14.5938 1.95823C14.8364 2.05937 15.0569 2.20762 15.2427 2.39451C15.4284 2.5814 15.5757 2.80327 15.6762 3.04745C15.7767 3.29164 15.8285 3.55335 15.8285 3.81766C15.8285 4.08196 15.7767 4.34368 15.6762 4.58787C15.5757 4.83206 15.4284 5.05393 15.2427 5.24083C14.5167 5.97132 12.5051 6.20418 11.4099 6.25157C11.4569 5.14935 11.6883 3.12494 12.4142 2.39456ZM6.7573 2.39456C7.13269 2.01768 7.64129 1.80603 8.17155 1.80603C8.70181 1.80603 9.21041 2.01768 9.5858 2.39456C10.3118 3.12504 10.5431 5.14935 10.5901 6.25157C9.4949 6.20418 7.4833 5.97132 6.7573 5.24083C6.38285 4.86306 6.17256 4.35127 6.17256 3.81769C6.17256 3.28412 6.38285 2.77233 6.7573 2.39456ZM1.8 10.6892V7.46902C1.80011 7.36229 1.84228 7.25997 1.91727 7.18451C1.99227 7.10904 2.09395 7.0666 2.2 7.06649H10.6V11.0918H2.2C2.09395 11.0917 1.99227 11.0492 1.91727 10.9738C1.84228 10.8983 1.80011 10.796 1.8 10.6892ZM3.4 18.7398V11.8968H10.6V19.1423H3.8C3.69395 19.1422 3.59227 19.0998 3.51727 19.0243C3.44228 18.9488 3.40011 18.8465 3.4 18.7398ZM18.6 18.7398C18.5999 18.8465 18.5577 18.9488 18.4827 19.0243C18.4077 19.0998 18.3061 19.1422 18.2 19.1423H11.4V11.8968H18.6V18.7398ZM20.2 10.6892C20.1999 10.796 20.1577 10.8983 20.0827 10.9738C20.0077 11.0492 19.9061 11.0917 19.8 11.0918H11.4V7.06649H19.8C19.9061 7.0666 20.0077 7.10904 20.0827 7.18451C20.1577 7.25997 20.1999 7.36229 20.2 7.46902V10.6892Z" fill="#FD585E" fill-opacity="0.6" stroke="#FD585E" stroke-opacity="0.6"/>
</svg>
