<svg width="20" height="23" viewBox="0 0 20 23" fill="none" xmlns="http://www.w3.org/2000/svg">
<path d="M4.25 4.2085H6.85417C6.85417 3.37969 7.18341 2.58484 7.76946 1.99879C8.35551 1.41274 9.15036 1.0835 9.97917 1.0835C10.808 1.0835 11.6028 1.41274 12.1889 1.99879C12.7749 2.58484 13.1042 3.37969 13.1042 4.2085H15.7083C16.5371 4.2085 17.332 4.53774 17.918 5.12379C18.5041 5.70984 18.8333 6.50469 18.8333 7.3335V18.7918C18.8333 19.6206 18.5041 20.4155 17.918 21.0015C17.332 21.5876 16.5371 21.9168 15.7083 21.9168H4.25C3.4212 21.9168 2.62634 21.5876 2.04029 21.0015C1.45424 20.4155 1.125 19.6206 1.125 18.7918V7.3335C1.125 6.50469 1.45424 5.70984 2.04029 5.12379C2.62634 4.53774 3.4212 4.2085 4.25 4.2085ZM4.25 5.25016C3.69747 5.25016 3.16756 5.46966 2.77686 5.86036C2.38616 6.25106 2.16667 6.78096 2.16667 7.3335V18.7918C2.16667 19.3444 2.38616 19.8743 2.77686 20.265C3.16756 20.6557 3.69747 20.8752 4.25 20.8752H15.7083C16.2609 20.8752 16.7908 20.6557 17.1815 20.265C17.5722 19.8743 17.7917 19.3444 17.7917 18.7918V7.3335C17.7917 6.78096 17.5722 6.25106 17.1815 5.86036C16.7908 5.46966 16.2609 5.25016 15.7083 5.25016H14.6667V8.37516H5.29167V5.25016H4.25ZM6.33333 7.3335H13.625V5.25016H6.33333V7.3335ZM9.97917 2.12516C9.42663 2.12516 8.89673 2.34466 8.50603 2.73536C8.11533 3.12606 7.89583 3.65596 7.89583 4.2085H12.0625C12.0625 3.65596 11.843 3.12606 11.4523 2.73536C11.0616 2.34466 10.5317 2.12516 9.97917 2.12516ZM4.25 10.4585H15.7083V11.5002H4.25V10.4585ZM4.25 13.5835H15.7083V14.6252H4.25V13.5835ZM4.25 16.7085H13.625V17.7502H4.25V16.7085Z" fill="#313131" fill-opacity="0.8" stroke="#313131" stroke-opacity="0.8" stroke-width="0.5"/>
</svg>
