<svg width="24" height="17" viewBox="0 0 24 17" fill="none" xmlns="http://www.w3.org/2000/svg">
<path d="M5.729 10.5835C6.32934 10.5834 6.91129 10.7907 7.37635 11.1703C7.84141 11.55 8.16102 12.0786 8.28109 12.6668H15.6248V2.25016H4.1665C3.61397 2.25016 3.08407 2.46966 2.69336 2.86036C2.30266 3.25106 2.08317 3.78096 2.08317 4.3335V12.6668H3.17692C3.29699 12.0786 3.6166 11.55 4.08166 11.1703C4.54672 10.7907 5.12866 10.5834 5.729 10.5835ZM5.729 15.7918C5.12866 15.792 4.54672 15.5847 4.08166 15.205C3.6166 14.8254 3.29699 14.2967 3.17692 13.7085H1.0415V4.3335C1.0415 3.50469 1.37074 2.70984 1.9568 2.12379C2.54285 1.53774 3.3377 1.2085 4.1665 1.2085H15.6248C15.9011 1.2085 16.1661 1.31824 16.3614 1.51359C16.5568 1.70894 16.6665 1.9739 16.6665 2.25016V4.3335H19.7915L22.9165 8.48037V13.7085H20.7811C20.6616 14.2972 20.3422 14.8265 19.8771 15.2066C19.4119 15.5868 18.8297 15.7944 18.229 15.7944C17.6283 15.7944 17.0461 15.5868 16.581 15.2066C16.1158 14.8265 15.7965 14.2972 15.6769 13.7085H8.28109C8.16102 14.2967 7.84141 14.8254 7.37635 15.205C6.91129 15.5847 6.32934 15.792 5.729 15.7918ZM5.729 11.6252C5.3146 11.6252 4.91718 11.7898 4.62415 12.0828C4.33112 12.3758 4.1665 12.7733 4.1665 13.1877C4.1665 13.6021 4.33112 13.9995 4.62415 14.2925C4.91718 14.5855 5.3146 14.7502 5.729 14.7502C6.1434 14.7502 6.54083 14.5855 6.83386 14.2925C7.12688 13.9995 7.2915 13.6021 7.2915 13.1877C7.2915 12.7733 7.12688 12.3758 6.83386 12.0828C6.54083 11.7898 6.1434 11.6252 5.729 11.6252ZM18.229 10.5835C18.8293 10.5834 19.4113 10.7907 19.8764 11.1703C20.3414 11.55 20.661 12.0786 20.7811 12.6668H21.8748V8.82933L21.6269 8.50016H16.6665V11.1043C17.1169 10.7656 17.6654 10.5827 18.229 10.5835ZM18.229 11.6252C17.8146 11.6252 17.4172 11.7898 17.1242 12.0828C16.8311 12.3758 16.6665 12.7733 16.6665 13.1877C16.6665 13.6021 16.8311 13.9995 17.1242 14.2925C17.4172 14.5855 17.8146 14.7502 18.229 14.7502C18.6434 14.7502 19.0408 14.5855 19.3339 14.2925C19.6269 13.9995 19.7915 13.6021 19.7915 13.1877C19.7915 12.7733 19.6269 12.3758 19.3339 12.0828C19.0408 11.7898 18.6434 11.6252 18.229 11.6252ZM16.6665 5.37516V7.4585H20.8425L19.2707 5.37516H16.6665Z" fill="#313131" fill-opacity="0.8" stroke="#313131" stroke-opacity="0.8" stroke-width="0.5"/>
</svg>
