<svg width="29" height="20" viewBox="0 0 29 20" fill="none" xmlns="http://www.w3.org/2000/svg">
<path d="M5.22668 1H13.68C14.801 1 15.8761 1.29944 16.6687 1.83243C17.4614 2.36543 17.9067 3.08833 17.9067 3.84211V7.63158H16.4978V3.84211C16.4978 3.33959 16.2009 2.85766 15.6725 2.50232C15.1441 2.14699 14.4273 1.94737 13.68 1.94737H5.22668C4.47935 1.94737 3.76264 2.14699 3.2342 2.50232C2.70576 2.85766 2.40889 3.33959 2.40889 3.84211V16.1579C2.40889 16.6604 2.70576 17.1423 3.2342 17.4977C3.76264 17.853 4.47935 18.0526 5.22668 18.0526H13.68C14.4273 18.0526 15.1441 17.853 15.6725 17.4977C16.2009 17.1423 16.4978 16.6604 16.4978 16.1579V12.3684H17.9067V16.1579C17.9067 16.9117 17.4614 17.6346 16.6687 18.1676C15.8761 18.7006 14.801 19 13.68 19H5.22668C4.10569 19 3.03062 18.7006 2.23796 18.1676C1.44531 17.6346 1 16.9117 1 16.1579V3.84211C1 3.08833 1.44531 2.36543 2.23796 1.83243C3.03062 1.29944 4.10569 1 5.22668 1ZM9.45335 9.52632H25.3034L20.7245 6.44737L21.66 5.73684L28 10L21.66 14.2632L20.7245 13.5526L25.3034 10.4737H9.45335V9.52632Z" fill="#313131" fill-opacity="0.8" stroke="#313131" stroke-opacity="0.8" stroke-width="0.5"/>
</svg>
