<svg width="22" height="18" viewBox="0 0 22 18" fill="none" xmlns="http://www.w3.org/2000/svg">
<path d="M4.2915 1.2085H17.8332C18.662 1.2085 19.4568 1.53774 20.0429 2.12379C20.6289 2.70984 20.9582 3.50469 20.9582 4.3335V13.7085C20.9582 14.5373 20.6289 15.3322 20.0429 15.9182C19.4568 16.5043 18.662 16.8335 17.8332 16.8335H4.2915C3.4627 16.8335 2.66785 16.5043 2.0818 15.9182C1.49574 15.3322 1.1665 14.5373 1.1665 13.7085V4.3335C1.1665 3.50469 1.49574 2.70984 2.0818 2.12379C2.66785 1.53774 3.4627 1.2085 4.2915 1.2085ZM4.2915 2.25016C3.73897 2.25016 3.20907 2.46966 2.81836 2.86036C2.42766 3.25106 2.20817 3.78096 2.20817 4.3335V5.37516H19.9165V4.3335C19.9165 3.78096 19.697 3.25106 19.3063 2.86036C18.9156 2.46966 18.3857 2.25016 17.8332 2.25016H4.2915ZM2.20817 13.7085C2.20817 14.261 2.42766 14.7909 2.81836 15.1816C3.20907 15.5723 3.73897 15.7918 4.2915 15.7918H17.8332C18.3857 15.7918 18.9156 15.5723 19.3063 15.1816C19.697 14.7909 19.9165 14.261 19.9165 13.7085V8.50016H2.20817V13.7085ZM4.2915 12.6668H8.45817V13.7085H4.2915V12.6668ZM10.5415 12.6668H13.6665V13.7085H10.5415V12.6668ZM2.20817 6.41683V7.4585H19.9165V6.41683H2.20817Z" fill="#313131" fill-opacity="0.8" stroke="#313131" stroke-width="0.5"/>
</svg>
