<svg width="29" height="26" viewBox="0 0 29 26" fill="none" xmlns="http://www.w3.org/2000/svg">
<path d="M22.2159 5.04797H23.5227V6.18419C23.5227 6.48554 23.6604 6.77454 23.9054 6.98763C24.1505 7.20071 24.4829 7.32042 24.8295 7.32042C25.1761 7.32042 25.5085 7.20071 25.7536 6.98763C25.9986 6.77454 26.1363 6.48554 26.1363 6.18419V5.04797H27.4431C27.7897 5.04797 28.1221 4.92826 28.3672 4.71518C28.6123 4.5021 28.7499 4.21309 28.7499 3.91175C28.7499 3.6104 28.6123 3.3214 28.3672 3.10832C28.1221 2.89523 27.7897 2.77552 27.4431 2.77552H26.1363V1.6393C26.1363 1.33796 25.9986 1.04895 25.7536 0.835869C25.5085 0.622786 25.1761 0.503077 24.8295 0.503077C24.4829 0.503077 24.1505 0.622786 23.9054 0.835869C23.6604 1.04895 23.5227 1.33796 23.5227 1.6393V2.77552H22.2159C21.8693 2.77552 21.5369 2.89523 21.2918 3.10832C21.0467 3.3214 20.9091 3.6104 20.9091 3.91175C20.9091 4.21309 21.0467 4.5021 21.2918 4.71518C21.5369 4.92826 21.8693 5.04797 22.2159 5.04797ZM7.8409 7.32042V18.6827C7.8409 18.984 7.97858 19.273 8.22366 19.4861C8.46873 19.6992 8.80112 19.8189 9.14771 19.8189C9.4943 19.8189 9.8267 19.6992 10.0718 19.4861C10.3168 19.273 10.4545 18.984 10.4545 18.6827V7.32042C10.4545 7.01907 10.3168 6.73007 10.0718 6.51699C9.8267 6.3039 9.4943 6.18419 9.14771 6.18419C8.80112 6.18419 8.46873 6.3039 8.22366 6.51699C7.97858 6.73007 7.8409 7.01907 7.8409 7.32042ZM26.9204 9.59287C26.7522 9.62268 26.5924 9.68102 26.4501 9.76454C26.3079 9.84806 26.1859 9.95513 26.0913 10.0796C25.9966 10.2041 25.9311 10.3436 25.8985 10.4902C25.8658 10.6367 25.8667 10.7874 25.9011 10.9336C26.4113 13.0881 26.1089 15.3283 25.0387 17.3215C23.9686 19.3147 22.1877 20.9548 19.9605 21.9982C17.7333 23.0417 15.1784 23.4329 12.6752 23.1138C10.172 22.7947 7.85385 21.7823 6.06489 20.2268C4.27593 18.6714 3.11151 16.6559 2.74449 14.4794C2.37747 12.303 2.82741 10.0816 4.02752 8.14516C5.22763 6.20868 7.11393 4.66029 9.40643 3.72982C11.6989 2.79935 14.2754 2.53642 16.7534 2.98004C17.1 3.04031 17.4599 2.97841 17.754 2.80794C18.0481 2.63747 18.2522 2.37241 18.3216 2.07107C18.3909 1.76972 18.3197 1.45678 18.1236 1.20108C17.9276 0.945376 17.6227 0.767866 17.2761 0.707597C16.3198 0.552675 15.3475 0.484137 14.375 0.503077C11.5319 0.503077 8.75262 1.2361 6.38867 2.60945C4.02472 3.9828 2.18224 5.93479 1.09424 8.21858C0.0062285 10.5024 -0.278444 13.0154 0.276217 15.4399C0.830879 17.8643 2.19996 20.0913 4.21034 21.8393C6.22071 23.5872 8.78209 24.7776 11.5706 25.2598C14.359 25.7421 17.2494 25.4946 19.876 24.5486C22.5027 23.6026 24.7478 22.0007 26.3273 19.9453C27.9069 17.8899 28.7499 15.4735 28.7499 13.0015C28.7527 12.1619 28.6564 11.3243 28.4624 10.5018C28.4311 10.3536 28.3662 10.2122 28.2714 10.0859C28.1767 9.95968 28.0539 9.85109 27.9104 9.76649C27.7669 9.68189 27.6055 9.62297 27.4355 9.59316C27.2655 9.56335 27.0904 9.56325 26.9204 9.59287ZM13.0682 9.59287V10.7291C13.0739 11.57 13.437 12.3793 14.0875 13.0015C13.437 13.6238 13.0739 14.4331 13.0682 15.274V16.4102C13.0682 17.3142 13.4812 18.1813 14.2164 18.8205C14.9517 19.4598 15.9488 19.8189 16.9886 19.8189H18.2954C19.3352 19.8189 20.3324 19.4598 21.0676 18.8205C21.8028 18.1813 22.2159 17.3142 22.2159 16.4102V15.274C22.2101 14.4331 21.8471 13.6238 21.1966 13.0015C21.8471 12.3793 22.2101 11.57 22.2159 10.7291V9.59287C22.2159 8.68883 21.8028 7.82182 21.0676 7.18257C20.3324 6.54332 19.3352 6.18419 18.2954 6.18419H16.9886C15.9488 6.18419 14.9517 6.54332 14.2164 7.18257C13.4812 7.82182 13.0682 8.68883 13.0682 9.59287ZM19.6022 16.4102C19.6022 16.7116 19.4646 17.0006 19.2195 17.2136C18.9744 17.4267 18.642 17.5464 18.2954 17.5464H16.9886C16.642 17.5464 16.3096 17.4267 16.0645 17.2136C15.8195 17.0006 15.6818 16.7116 15.6818 16.4102V15.274C15.6818 14.9726 15.8195 14.6836 16.0645 14.4706C16.3096 14.2575 16.642 14.1378 16.9886 14.1378H18.2954C18.642 14.1378 18.9744 14.2575 19.2195 14.4706C19.4646 14.6836 19.6022 14.9726 19.6022 15.274V16.4102ZM19.6022 9.59287V10.7291C19.6022 11.0304 19.4646 11.3194 19.2195 11.5325C18.9744 11.7456 18.642 11.8653 18.2954 11.8653H16.9886C16.642 11.8653 16.3096 11.7456 16.0645 11.5325C15.8195 11.3194 15.6818 11.0304 15.6818 10.7291V9.59287C15.6818 9.29152 15.8195 9.00252 16.0645 8.78943C16.3096 8.57635 16.642 8.45664 16.9886 8.45664H18.2954C18.642 8.45664 18.9744 8.57635 19.2195 8.78943C19.4646 9.00252 19.6022 9.29152 19.6022 9.59287Z" fill="white" fill-opacity="0.7"/>
</svg>
