<svg width="34" height="34" viewBox="0 0 34 34" fill="none" xmlns="http://www.w3.org/2000/svg">
<path d="M31.96 9.44136H24.1126C24.502 9.22827 24.8597 8.95538 25.1741 8.63146C26.0668 7.68324 26.5683 6.39718 26.5683 5.05619C26.5683 3.71521 26.0668 2.42915 25.1741 1.48092C24.7321 1.01141 24.2074 0.638977 23.6299 0.38488C23.0523 0.130782 22.4334 0 21.8083 0C20.5458 0 19.3351 0.532704 18.4424 1.48092C17.8372 2.12378 17.3551 3.13141 17 4.48521C16.6447 3.13141 16.1626 2.12378 15.5576 1.48092C14.6649 0.532704 13.4542 0 12.1917 0C10.9293 0 9.71856 0.532704 8.82589 1.48092C7.93322 2.42915 7.43172 3.71521 7.43172 5.05619C7.43172 6.39718 7.93322 7.68324 8.82589 8.63146C9.14032 8.95538 9.49799 9.22827 9.88737 9.44136H2.04C1.49914 9.44198 0.980596 9.67048 0.598148 10.0767C0.215701 10.483 0.000584984 11.0338 0 11.6083V17.3868C0.000584984 17.9613 0.215701 18.5121 0.598148 18.9184C0.980596 19.3246 1.49914 19.5531 2.04 19.5537H2.72V31.8331C2.72059 32.4076 2.9357 32.9584 3.31815 33.3646C3.7006 33.7709 4.21914 33.9994 4.76 34H29.24C29.7809 33.9994 30.2994 33.7709 30.6819 33.3646C31.0643 32.9584 31.2794 32.4076 31.28 31.8331V19.5537H31.96C32.5009 19.5531 33.0194 19.3246 33.4019 18.9184C33.7843 18.5121 33.9994 17.9613 34 17.3868V11.6083C33.9994 11.0338 33.7843 10.483 33.4019 10.0767C33.0194 9.67048 32.5009 9.44198 31.96 9.44136ZM19.4041 2.50246C20.0418 1.82514 20.9066 1.44462 21.8083 1.4446C22.2548 1.44459 22.6969 1.538 23.1094 1.71949C23.522 1.90098 23.8968 2.167 24.2125 2.50237C24.5282 2.83773 24.7787 3.23586 24.9496 3.67404C25.1204 4.11221 25.2084 4.58185 25.2084 5.05613C25.2084 5.53041 25.1205 6.00005 24.9496 6.43823C24.7787 6.87641 24.5283 7.27456 24.2126 7.60993C22.9784 8.92075 19.5587 9.33861 17.6968 9.42366C17.7767 7.44579 18.1701 3.81309 19.4041 2.50246ZM9.78741 2.50246C10.4256 1.82618 11.2902 1.44638 12.1916 1.44638C13.0931 1.44638 13.9577 1.82618 14.5959 2.50246C15.8301 3.81327 16.2233 7.44579 16.3032 9.42366C14.4413 9.33861 11.0216 8.92075 9.78741 7.60993C9.15084 6.93205 8.79335 6.01366 8.79335 5.05619C8.79335 4.09872 9.15084 3.18034 9.78741 2.50246ZM1.36 17.3868V11.6083C1.36018 11.4168 1.43188 11.2332 1.55937 11.0978C1.68685 10.9623 1.85971 10.8862 2.04 10.886H16.32V18.1091H2.04C1.85971 18.1089 1.68685 18.0328 1.55937 17.8973C1.43188 17.7619 1.36018 17.5783 1.36 17.3868ZM4.08 31.8331V19.5537H16.32V32.5554H4.76C4.57971 32.5552 4.40685 32.479 4.27937 32.3436C4.15188 32.2082 4.08018 32.0246 4.08 31.8331ZM29.92 31.8331C29.9198 32.0246 29.8481 32.2082 29.7206 32.3436C29.5931 32.479 29.4203 32.5552 29.24 32.5554H17.68V19.5537H29.92V31.8331ZM32.64 17.3868C32.6398 17.5783 32.5681 17.7619 32.4406 17.8973C32.3131 18.0328 32.1403 18.1089 31.96 18.1091H17.68V10.886H31.96C32.1403 10.8862 32.3131 10.9623 32.4406 11.0978C32.5681 11.2332 32.6398 11.4168 32.64 11.6083V17.3868Z" fill="black"/>
</svg>
