<svg width="18" height="22" viewBox="0 0 18 22" fill="none" xmlns="http://www.w3.org/2000/svg">
<path d="M16.583 5.58335H13.333V4.50002C13.333 3.35075 12.8765 2.24855 12.0638 1.43589C11.2511 0.623233 10.1489 0.166687 8.99967 0.166687C7.8504 0.166687 6.7482 0.623233 5.93554 1.43589C5.12289 2.24855 4.66634 3.35075 4.66634 4.50002V5.58335H1.41634C1.12902 5.58335 0.853473 5.69749 0.650309 5.90066C0.447145 6.10382 0.333008 6.37937 0.333008 6.66669V18.5834C0.333008 19.4453 0.675418 20.272 1.28491 20.8815C1.8944 21.4909 2.72105 21.8334 3.58301 21.8334H14.4163C15.2783 21.8334 16.1049 21.4909 16.7144 20.8815C17.3239 20.272 17.6663 19.4453 17.6663 18.5834V6.66669C17.6663 6.37937 17.5522 6.10382 17.349 5.90066C17.1459 5.69749 16.8703 5.58335 16.583 5.58335ZM6.83301 4.50002C6.83301 3.92538 7.06128 3.37428 7.46761 2.96796C7.87394 2.56163 8.42504 2.33335 8.99967 2.33335C9.57431 2.33335 10.1254 2.56163 10.5317 2.96796C10.9381 3.37428 11.1663 3.92538 11.1663 4.50002V5.58335H6.83301V4.50002ZM15.4997 18.5834C15.4997 18.8707 15.3855 19.1462 15.1824 19.3494C14.9792 19.5526 14.7037 19.6667 14.4163 19.6667H3.58301C3.29569 19.6667 3.02014 19.5526 2.81698 19.3494C2.61381 19.1462 2.49967 18.8707 2.49967 18.5834V7.75002H4.66634V8.83335C4.66634 9.12067 4.78048 9.39622 4.98364 9.59939C5.18681 9.80255 5.46236 9.91669 5.74967 9.91669C6.03699 9.91669 6.31254 9.80255 6.51571 9.59939C6.71887 9.39622 6.83301 9.12067 6.83301 8.83335V7.75002H11.1663V8.83335C11.1663 9.12067 11.2805 9.39622 11.4836 9.59939C11.6868 9.80255 11.9624 9.91669 12.2497 9.91669C12.537 9.91669 12.8125 9.80255 13.0157 9.59939C13.2189 9.39622 13.333 9.12067 13.333 8.83335V7.75002H15.4997V18.5834Z" fill="#313131" fill-opacity="0.8"/>
</svg>
