<svg width="24" height="26" viewBox="0 0 24 26" fill="none" xmlns="http://www.w3.org/2000/svg">
<path fill-rule="evenodd" clip-rule="evenodd" d="M21.4219 8.125H1.92188V22.75C1.92188 23.181 2.09308 23.5943 2.39783 23.899C2.70257 24.2038 3.1159 24.375 3.54688 24.375H19.7969C20.2279 24.375 20.6412 24.2038 20.9459 23.899C21.2507 23.5943 21.4219 23.181 21.4219 22.75V8.125ZM0.296875 6.5V22.75C0.296875 23.612 0.639285 24.4386 1.24878 25.0481C1.85827 25.6576 2.68492 26 3.54688 26H19.7969C20.6588 26 21.4855 25.6576 22.095 25.0481C22.7045 24.4386 23.0469 23.612 23.0469 22.75V6.5H0.296875Z" fill="#FD585E"/>
<path d="M11.6719 2.4375C10.5944 2.4375 9.56112 2.86551 8.79925 3.62738C8.03739 4.38925 7.60938 5.42256 7.60938 6.5H5.98438C5.98438 4.99158 6.58359 3.54494 7.65021 2.47833C8.71682 1.41172 10.1635 0.8125 11.6719 0.8125C13.1803 0.8125 14.6269 1.41172 15.6935 2.47833C16.7602 3.54494 17.3594 4.99158 17.3594 6.5H15.7344C15.7344 5.42256 15.3064 4.38925 14.5445 3.62738C13.7826 2.86551 12.7493 2.4375 11.6719 2.4375Z" fill="#FD585E"/>
<path fill-rule="evenodd" clip-rule="evenodd" d="M16.3102 12.4247C16.3858 12.5002 16.4459 12.5899 16.4868 12.6886C16.5278 12.7873 16.5489 12.8931 16.5489 13C16.5489 13.1069 16.5278 13.2127 16.4868 13.3114C16.4459 13.4101 16.3858 13.4998 16.3102 13.5752L11.4352 18.4502C11.3597 18.5259 11.27 18.5859 11.1713 18.6269C11.0726 18.6679 10.9668 18.6889 10.8599 18.6889C10.753 18.6889 10.6472 18.6679 10.5485 18.6269C10.4498 18.5859 10.3601 18.5259 10.2847 18.4502L7.84716 16.0127C7.6946 15.8602 7.60889 15.6532 7.60889 15.4375C7.60889 15.2217 7.6946 15.0148 7.84716 14.8622C7.99973 14.7097 8.20665 14.624 8.42241 14.624C8.63817 14.624 8.8451 14.7097 8.99766 14.8622L10.8599 16.7261L15.1597 12.4247C15.2351 12.3491 15.3248 12.289 15.4235 12.2481C15.5222 12.2071 15.628 12.186 15.7349 12.186C15.8418 12.186 15.9476 12.2071 16.0463 12.2481C16.145 12.289 16.2347 12.3491 16.3102 12.4247Z" fill="#FD585E"/>
</svg>
