<svg width="27" height="26" viewBox="0 0 27 26" fill="none" xmlns="http://www.w3.org/2000/svg">
<path fill-rule="evenodd" clip-rule="evenodd" d="M7.20948 6.39498C7.39266 6.20652 7.64321 6.09855 7.906 6.09482C8.1688 6.09109 8.42231 6.19191 8.61077 6.3751L14.2955 11.9007C14.4839 12.0839 14.5919 12.3344 14.5956 12.5972C14.5994 12.86 14.4986 13.1135 14.3154 13.302L8.78975 18.9867C8.60657 19.1752 8.35602 19.2831 8.09323 19.2869C7.83044 19.2906 7.57692 19.1898 7.38846 19.0066C7.2 18.8234 7.09203 18.5729 7.0883 18.3101C7.08457 18.0473 7.18539 17.7938 7.36858 17.6053L12.2035 12.6312L7.22936 7.79627C7.0409 7.61309 6.93293 7.36254 6.9292 7.09975C6.92547 6.83695 7.02629 6.58344 7.20948 6.39498Z" fill="#7D7D7D"/>
<path fill-rule="evenodd" clip-rule="evenodd" d="M12.9132 13.3218C12.7248 13.1386 12.6168 12.8881 12.6131 12.6253C12.6093 12.3625 12.7102 12.109 12.8933 11.9205L18.4189 6.2358C18.6021 6.04734 18.8527 5.93937 19.1155 5.93564C19.3783 5.93191 19.6318 6.03273 19.8202 6.21592C20.0087 6.3991 20.1167 6.64965 20.1204 6.91244C20.1241 7.17524 20.0233 7.42875 19.8401 7.61721L15.0052 12.5913L19.9793 17.4262C20.1678 17.6094 20.2758 17.86 20.2795 18.1228C20.2832 18.3856 20.1824 18.6391 19.9992 18.8275C19.816 19.016 19.5655 19.124 19.3027 19.1277C19.0399 19.1314 18.7864 19.0306 18.5979 18.8474L12.9132 13.3218Z" fill="#7D7D7D"/>
</svg>
