<svg width="22" height="24" viewBox="0 0 22 24" fill="none" xmlns="http://www.w3.org/2000/svg">
<path fill-rule="evenodd" clip-rule="evenodd" d="M20 7.5H2V21C2 21.3978 2.15804 21.7794 2.43934 22.0607C2.72064 22.342 3.10218 22.5 3.5 22.5H18.5C18.8978 22.5 19.2794 22.342 19.5607 22.0607C19.842 21.7794 20 21.3978 20 21V7.5ZM0.5 6V21C0.5 21.7956 0.816071 22.5587 1.37868 23.1213C1.94129 23.6839 2.70435 24 3.5 24H18.5C19.2956 24 20.0587 23.6839 20.6213 23.1213C21.1839 22.5587 21.5 21.7956 21.5 21V6H0.5Z" fill="#313131" fill-opacity="0.8"/>
<path d="M11 2.25C10.0054 2.25 9.05161 2.64509 8.34835 3.34835C7.64509 4.05161 7.25 5.00544 7.25 6H5.75C5.75 4.60761 6.30312 3.27226 7.28769 2.28769C8.27226 1.30312 9.60761 0.75 11 0.75C12.3924 0.75 13.7277 1.30312 14.7123 2.28769C15.6969 3.27226 16.25 4.60761 16.25 6H14.75C14.75 5.00544 14.3549 4.05161 13.6517 3.34835C12.9484 2.64509 11.9946 2.25 11 2.25Z" fill="#313131" fill-opacity="0.8"/>
</svg>
