<svg width="95" height="84" viewBox="0 0 95 84" fill="none" xmlns="http://www.w3.org/2000/svg">
<path d="M38.6309 28.3C39.0309 27.65 39.3909 27.01 39.7209 26.39L41.7209 20.29C41.7099 20.0597 41.6592 19.833 41.5709 19.62C41.4157 19.3864 41.2044 19.1954 40.9564 19.0643C40.7083 18.9333 40.4314 18.8665 40.1509 18.87C37.8409 18.87 34.0909 22.66 31.2109 26.56C32.2539 26.8993 33.2592 27.345 34.2109 27.89C34.9932 28.3371 35.7388 28.8454 36.4409 29.41C37.1358 28.9745 37.8688 28.603 38.6309 28.3Z" fill="#232323"/>
<path d="M23.6407 34.79C23.85 34.7362 24.0647 34.706 24.2807 34.7L28.2807 27.39C28.344 27.3124 28.4324 27.2594 28.5307 27.24C29.3407 27.01 31.3807 27.46 33.7307 28.78C36.4307 30.29 37.7307 31.86 37.8107 32.52L38.3407 31.41C38.0236 30.9372 37.6509 30.5041 37.2307 30.12C36.9907 29.89 36.7307 29.67 36.4407 29.44C35.7315 28.8814 34.9791 28.3798 34.1907 27.94C33.2389 27.395 32.2336 26.9493 31.1907 26.61C30.8623 26.5027 30.5285 26.4125 30.1907 26.34C29.5752 26.2001 28.9362 26.2001 28.3207 26.34C28.1413 26.3823 27.9724 26.4609 27.8245 26.571C27.6765 26.681 27.5528 26.8202 27.4607 26.98L22.7207 35.48C22.8194 35.3087 22.9518 35.1592 23.1099 35.0406C23.268 34.922 23.4486 34.8367 23.6407 34.79Z" fill="#232323"/>
<path d="M33.8105 40.03C33.9259 40.2317 34.0165 40.4466 34.0805 40.67C35.0105 38.39 36.0005 36.24 36.9605 34.22L33.8105 40.03Z" fill="#232323"/>
<path d="M34.0709 40.6699C34.0068 40.4466 33.9162 40.2317 33.8009 40.0299C32.7254 38.4748 31.2782 37.2132 29.5909 36.36C27.9894 35.3591 26.1573 34.7874 24.2709 34.7C24.0548 34.7059 23.8402 34.7361 23.6309 34.79C23.437 34.8355 23.2545 34.9201 23.0945 35.0388C22.9346 35.1575 22.8006 35.3076 22.7009 35.4799C22.6052 35.6851 22.5557 35.9086 22.5557 36.1349C22.5557 36.3613 22.6052 36.5848 22.7009 36.79L22.9209 36.41L23.0809 36.34C23.2417 36.2786 23.4097 36.2383 23.5809 36.22C23.56 36.1447 23.56 36.0652 23.5809 35.99C23.6608 35.8812 23.7785 35.8063 23.9109 35.7799C24.0967 35.7305 24.2885 35.7069 24.4809 35.7099C26.1203 35.8541 27.7028 36.3816 29.1009 37.25C31.9709 38.86 33.4109 40.7699 33.1009 41.3299C33.0492 41.3724 32.987 41.4 32.9209 41.41C32.9943 41.5625 33.0481 41.7238 33.0809 41.8899V42.06L33.0009 42.2099L32.8609 42.4599H33.0009C33.122 42.4253 33.2392 42.3783 33.3509 42.32C33.6109 41.7666 33.8509 41.2166 34.0709 40.6699Z" fill="#232323"/>
<path d="M33.1411 42.1V41.93C33.0927 41.7471 33.0186 41.5721 32.9211 41.41C32.5911 40.7 31.6311 39.3 28.8111 37.72C25.9911 36.14 24.3111 36.06 23.5411 36.16C23.37 36.1783 23.2019 36.2187 23.0411 36.28L22.9211 36.41L22.7011 36.82L4.12109 70.98C4.30406 70.9637 4.48813 70.9637 4.67109 70.98L5.22109 69.98L5.40109 70.45H5.55109L6.82109 68.11L6.76109 67.95L6.29109 68.04L6.59109 67.49L7.22109 66.34L7.40109 66.81H7.55109L8.81109 64.41L8.75109 64.25L8.28109 64.34L8.58109 63.79L9.21109 62.64L9.39109 63.11H9.54109L10.8111 60.77L10.7511 60.61L10.2811 60.7L10.5811 60.15L11.2111 59L11.3911 59.47H11.5411L12.8111 57.13L12.7511 56.97L12.2811 57.06L12.5811 56.51L13.2111 55.36L13.3911 55.83H13.5411L14.7711 53.41L14.7111 53.25L14.2411 53.34L14.5411 52.79L15.1711 51.64L15.3511 52.11H15.5011L16.7711 49.77L16.7111 49.61L16.2411 49.7L16.5411 49.15L17.1711 48L17.3511 48.47H17.5011L18.7711 46.13L18.7111 45.97L18.2411 46.06L18.5411 45.51L19.1411 44.41L19.3211 44.88H19.4711L20.7411 42.54L20.6811 42.38L20.2111 42.47L20.5111 41.92L21.1411 40.77L21.3211 41.24H21.4711L22.7411 38.9L22.6811 38.74L22.2111 38.83L22.5111 38.28L23.1411 37.13L23.3211 37.6H23.4711L23.6211 37.32C23.9922 37.2629 24.3699 37.2629 24.7411 37.32L25.4911 37.18L25.4011 36.94C25.8158 37.0434 26.2233 37.1737 26.6211 37.33C26.9311 37.45 27.2711 37.6 27.6211 37.78L26.8311 37.93V37.98C27.86 38.4213 28.8389 38.9711 29.7511 39.62L29.4511 38.85C29.9776 39.1828 30.4789 39.5538 30.9511 39.96L31.3411 40.32H31.1011L31.3911 41.07C31.6352 41.3456 31.8373 41.6556 31.9911 41.99L31.8511 42.25L31.9111 42.41L32.3811 42.32L32.0811 42.87L31.4511 44.02L31.2711 43.55H31.1211L29.9211 45.88L29.9811 46.04L30.4511 45.95L30.1511 46.5L29.5211 47.65L29.3411 47.18H29.1911L27.9211 49.55L27.9811 49.71L28.4511 49.62L28.1511 50.17L27.5211 51.32L27.3411 50.85H27.1911L25.9211 53.21L25.9811 53.37L26.4511 53.28L26.1511 53.83L25.5211 54.98L25.3411 54.51H25.1911L23.9211 56.85L23.9811 57.01L24.4511 56.92L24.1511 57.47L23.5211 58.62L23.3411 58.15H23.1911L21.9211 60.49L21.9811 60.65L22.4511 60.56L22.1511 61.11L21.5211 62.26L21.3411 61.79H21.1911L19.9211 64.13L19.9811 64.29L20.4511 64.2L20.1511 64.75L19.5211 65.9L19.3411 65.43H19.1911L17.9211 67.77L17.9811 67.93L18.4511 67.84L18.1511 68.39L17.5211 69.54L17.3411 69.07H17.1911L16.0211 71.53L16.0811 71.69L16.5511 71.6L16.2511 72.15L15.6211 73.3L15.4411 72.83H15.2911L14.0211 75.17L14.0811 75.33L14.5511 75.24L14.2511 75.79L14.0011 76.24C14.1206 76.384 14.2276 76.5379 14.3211 76.7L32.9211 42.5L33.0611 42.25L33.1411 42.1Z" fill="#232323"/>
<path d="M23.6708 38.45L25.8408 38.03L25.4708 37.09L24.7208 37.23L23.4508 37.48L23.3008 37.51L23.6708 38.45Z" fill="#232323"/>
<path d="M22.2012 38.7399L22.6712 38.6499L22.4912 38.1899L22.2012 38.7399Z" fill="#232323"/>
<path d="M26.8409 37.84L27.6309 37.69C27.2709 37.51 26.9309 37.36 26.6309 37.24L26.8409 37.84Z" fill="#232323"/>
<path d="M21.6805 42.12L23.8505 41.7L23.4805 40.75L21.4605 41.14L21.3105 41.17L21.6805 42.12Z" fill="#232323"/>
<path d="M26.6505 40.14L24.4805 40.56L24.8505 41.5L27.0205 41.08L26.6505 40.14Z" fill="#232323"/>
<path d="M27.6514 39.94L28.0114 40.89L30.1914 40.47L29.8214 39.52L29.7814 39.53L27.6514 39.94Z" fill="#232323"/>
<path d="M20.2109 42.4L20.6809 42.31L20.5109 41.86L20.2109 42.4Z" fill="#232323"/>
<path d="M31.1812 40.28H31.4212L31.0312 39.92L31.1812 40.28Z" fill="#232323"/>
<path d="M27.8311 43.1899L25.6611 43.6099L26.0311 44.5499L28.1911 44.1299L27.8311 43.1899Z" fill="#232323"/>
<path d="M31.0011 42.5701L28.8311 42.9901L29.1911 43.9401L31.2111 43.5501L31.3611 43.5201L31.0011 42.5701Z" fill="#232323"/>
<path d="M24.6612 43.8L22.4912 44.2201L22.8612 45.17L25.0312 44.75L24.6612 43.8Z" fill="#232323"/>
<path d="M19.6913 45.78L21.8613 45.36L21.4913 44.41L19.4713 44.8L19.3213 44.83L19.6913 45.78Z" fill="#232323"/>
<path d="M18.2207 46.06L18.6907 45.97L18.5107 45.52L18.2207 46.06Z" fill="#232323"/>
<path d="M32.171 42.83L32.471 42.29L32.001 42.38L32.171 42.83Z" fill="#232323"/>
<path d="M29.0108 46.24L26.8408 46.66L27.2008 47.6L29.2208 47.21L29.3708 47.18L29.0108 46.24Z" fill="#232323"/>
<path d="M17.7011 49.4401L19.8711 49.0201L19.5011 48.0701L17.4811 48.4701L17.3311 48.5001L17.7011 49.4401Z" fill="#232323"/>
<path d="M22.671 47.46L20.501 47.88L20.871 48.83L23.041 48.41L22.671 47.46Z" fill="#232323"/>
<path d="M25.8409 46.85L23.6709 47.27L24.0409 48.22L26.2109 47.8L25.8409 46.85Z" fill="#232323"/>
<path d="M30.4807 45.95L30.0107 46.04L30.1807 46.5L30.4807 45.95Z" fill="#232323"/>
<path d="M16.2305 49.7299L16.7005 49.6399L16.5305 49.1799L16.2305 49.7299Z" fill="#232323"/>
<path d="M23.8507 50.51L21.6807 50.93L22.0507 51.88L24.2207 51.46L23.8507 50.51Z" fill="#232323"/>
<path d="M20.6807 51.13L18.5107 51.54L18.8807 52.49L21.0507 52.07L20.6807 51.13Z" fill="#232323"/>
<path d="M15.7106 53.11L17.8806 52.68L17.5106 51.74L15.4906 52.13L15.3506 52.16L15.7106 53.11Z" fill="#232323"/>
<path d="M27.0206 49.9L24.8506 50.32L25.2206 51.27L27.2406 50.88L27.3806 50.85L27.0206 49.9Z" fill="#232323"/>
<path d="M28.4905 49.61L28.0205 49.71L28.1905 50.16L28.4905 49.61Z" fill="#232323"/>
<path d="M14.2412 53.39L14.7112 53.3L14.5412 52.84L14.2412 53.39Z" fill="#232323"/>
<path d="M13.7213 56.77L15.8913 56.35L15.5313 55.4L13.5113 55.79L13.3613 55.82L13.7213 56.77Z" fill="#232323"/>
<path d="M21.8604 54.1799L19.6904 54.5999L20.0604 55.5399L22.2304 55.1199L21.8604 54.1799Z" fill="#232323"/>
<path d="M18.6905 54.79L16.5205 55.21L16.8905 56.15L19.0605 55.74L18.6905 54.79Z" fill="#232323"/>
<path d="M25.0313 53.5601L22.8613 53.9801L23.2313 54.9301L25.2513 54.5401L25.4013 54.5101L25.0313 53.5601Z" fill="#232323"/>
<path d="M26.5012 53.28L26.0312 53.37L26.2013 53.82L26.5012 53.28Z" fill="#232323"/>
<path d="M12.251 57.05L12.721 56.96L12.551 56.51L12.251 57.05Z" fill="#232323"/>
<path d="M23.0411 57.22L20.8711 57.64L21.2411 58.59L23.2611 58.2L23.4111 58.17L23.0411 57.22Z" fill="#232323"/>
<path d="M11.7311 60.4301L13.9011 60.0101L13.5411 59.0601L11.5211 59.4601L11.3711 59.4801L11.7311 60.4301Z" fill="#232323"/>
<path d="M19.8712 57.84L17.7012 58.26L18.0712 59.21L20.2412 58.79L19.8712 57.84Z" fill="#232323"/>
<path d="M16.7013 58.45L14.5312 58.8699L14.9012 59.82L17.0712 59.4L16.7013 58.45Z" fill="#232323"/>
<path d="M10.2607 60.72L10.7307 60.62L10.5607 60.17L10.2607 60.72Z" fill="#232323"/>
<path d="M24.511 56.9399L24.041 57.0299L24.211 57.4899L24.511 56.9399Z" fill="#232323"/>
<path d="M17.8809 61.5L15.7109 61.92L16.0809 62.87L18.2509 62.45L17.8809 61.5Z" fill="#232323"/>
<path d="M21.0509 60.89L18.8809 61.31L19.2509 62.25L21.2709 61.86L21.4209 61.83L21.0509 60.89Z" fill="#232323"/>
<path d="M9.74086 64.09L11.9109 63.67L11.5509 62.73L9.53086 63.12L9.38086 63.15L9.74086 64.09Z" fill="#232323"/>
<path d="M14.7208 62.11L12.5508 62.53L12.9108 63.48L15.0808 63.06L14.7208 62.11Z" fill="#232323"/>
<path d="M22.5208 60.6L22.0508 60.69L22.2208 61.15L22.5208 60.6Z" fill="#232323"/>
<path d="M8.27051 64.38L8.74051 64.29L8.57051 63.83L8.27051 64.38Z" fill="#232323"/>
<path d="M19.0606 64.55L16.8906 64.97L17.2606 65.9201L19.2806 65.5301L19.4306 65.5L19.0606 64.55Z" fill="#232323"/>
<path d="M7.75062 67.76L9.92062 67.34L9.56063 66.39L7.54062 66.78L7.39062 66.81L7.75062 67.76Z" fill="#232323"/>
<path d="M12.7305 65.78L10.5605 66.2L10.9205 67.14L13.0905 66.72L12.7305 65.78Z" fill="#232323"/>
<path d="M15.8907 65.16L13.7207 65.58L14.0907 66.53L16.2607 66.11L15.8907 65.16Z" fill="#232323"/>
<path d="M20.5305 64.27L20.0605 64.36L20.2405 64.81L20.5305 64.27Z" fill="#232323"/>
<path d="M6.28125 68.04L6.76125 67.95L6.58125 67.5L6.28125 68.04Z" fill="#232323"/>
<path d="M10.7413 69.4399L8.57129 69.8599L8.93129 70.8099L11.1013 70.3899L10.7413 69.4399Z" fill="#232323"/>
<path d="M17.0714 68.21L14.9014 68.63L15.2714 69.58L17.2914 69.19L17.4414 69.16L17.0714 68.21Z" fill="#232323"/>
<path d="M13.9005 68.83L11.7305 69.25L12.1005 70.19L14.2705 69.77L13.9005 68.83Z" fill="#232323"/>
<path d="M5.69137 71.23L6.07137 71.36L7.92137 71L7.55137 70.05L5.55137 70.44H5.40137L5.69137 71.23Z" fill="#232323"/>
<path d="M18.5413 67.9299L18.0713 68.0199L18.2513 68.4699L18.5413 67.9299Z" fill="#232323"/>
<path d="M11.921 72.49L9.75098 72.91L9.81098 73.08C10.021 73.2 10.401 73.42 10.861 73.71L12.281 73.41L11.921 72.49Z" fill="#232323"/>
<path d="M15.0811 71.88L12.9111 72.3L13.2811 73.24L15.3011 72.85L15.4511 72.82L15.0811 71.88Z" fill="#232323"/>
<path d="M16.5511 71.59L16.0811 71.68L16.2611 72.14L16.5511 71.59Z" fill="#232323"/>
<path d="M14.5608 75.25L14.0908 75.35L14.2708 75.8L14.5608 75.25Z" fill="#232323"/>
<path d="M5.6909 71.23L5.4009 70.47L5.2209 70L4.6709 71C5.01639 71.0499 5.35744 71.1268 5.6909 71.23Z" fill="#232323"/>
<path d="M7.92055 71L8.46055 72.41C8.89055 72.62 9.30055 72.84 9.69055 73.05L9.81055 73.12L9.75055 72.95L8.92055 70.81L8.55055 69.86L7.74055 67.76L7.37055 66.81L7.19055 66.34L6.56055 67.49L6.74055 67.94L6.80055 68.1L7.55055 70.05L7.92055 71Z" fill="#232323"/>
<path d="M9.92055 67.34L10.7305 69.44L11.1005 70.39L11.9105 72.49L12.2805 73.44L12.9205 75.22C13.3008 75.52 13.6524 75.8548 13.9705 76.22L14.2205 75.77L14.0405 75.32L13.9805 75.16L13.2305 73.21L12.9205 72.3L12.1105 70.2L11.7405 69.25L10.9205 67.14L10.5505 66.19L9.74055 64.09L9.37055 63.14L9.19055 62.67L8.56055 63.82L8.74055 64.27L8.80055 64.43L9.56055 66.41L9.92055 67.34Z" fill="#232323"/>
<path d="M11.9105 63.67L12.7305 65.78L13.0905 66.72L13.9005 68.83L14.2705 69.77L15.0805 71.88L15.4505 72.82L15.6305 73.29L16.2605 72.14L16.0805 71.68L16.0205 71.53L15.2705 69.58L14.9005 68.63L14.0905 66.53L13.7205 65.58L12.9105 63.48L12.5505 62.53L11.7305 60.43L11.3705 59.48L11.1905 59.02L10.5605 60.17L10.7305 60.62L10.8005 60.78L11.5505 62.73L11.9105 63.67Z" fill="#232323"/>
<path d="M13.9008 60.01L14.7208 62.11L15.0808 63.06L15.8908 65.16L16.2608 66.11L17.0708 68.21L17.4408 69.16L17.6208 69.63L18.2508 68.47L18.0708 68.02L18.0108 67.86L17.2608 65.92L16.8908 64.97L16.0808 62.87L15.7108 61.92L14.9008 59.82L14.5308 58.87L13.7208 56.77L13.3608 55.82L13.1708 55.35L12.5508 56.51L12.7208 56.96L12.7808 57.12L13.5408 59.06L13.9008 60.01Z" fill="#232323"/>
<path d="M15.891 56.3499L16.701 58.4499L17.071 59.3999L17.881 61.4999L18.251 62.4499L19.061 64.5499L19.431 65.4999L19.611 65.9699L20.241 64.8099L20.061 64.3599L20.001 64.1999L19.251 62.2499L18.881 61.3099L18.071 59.2099L17.701 58.2599L16.891 56.1499L16.521 55.2099L15.711 53.1099L15.351 52.1599L15.161 51.6899L14.541 52.8399L14.711 53.2999L14.771 53.4599L15.531 55.3999L15.891 56.3499Z" fill="#232323"/>
<path d="M17.8812 52.68L18.6912 54.79L19.0612 55.74L19.8713 57.84L20.2412 58.79L21.0512 60.89L21.4212 61.83L21.6012 62.3L22.2212 61.15L22.0512 60.69L21.9912 60.54L21.2412 58.59L20.8713 57.64L20.0612 55.54L19.6912 54.6L18.8812 52.49L18.5112 51.54L17.7013 49.44L17.3312 48.5L17.1512 48.03L16.5312 49.18L16.7013 49.64L16.7612 49.79L17.5112 51.74L17.8812 52.68Z" fill="#232323"/>
<path d="M19.8707 49.02L20.6807 51.13L21.0507 52.07L21.8607 54.18L22.2307 55.12L23.0407 57.22L23.4107 58.17L23.5907 58.64L24.2107 57.49L24.0407 57.03L23.9807 56.87L23.2307 54.93L22.8607 53.98L22.0507 51.88L21.6807 50.93L20.8707 48.83L20.5007 47.88L19.6907 45.78L19.3207 44.83L19.1407 44.36L18.5107 45.52L18.6907 45.97L18.7507 46.13L19.5007 48.07L19.8707 49.02Z" fill="#232323"/>
<path d="M21.8607 45.36L22.6707 47.4599L23.0407 48.41L23.8507 50.5099L24.2207 51.4599L25.0307 53.56L25.4007 54.5099L25.5807 54.9799L26.2007 53.82L26.0307 53.3699L25.9707 53.2099L25.2207 51.27L24.8507 50.32L24.0407 48.22L23.6707 47.27L22.8607 45.1699L22.4907 44.22L21.6807 42.1199L21.3107 41.1699L21.1307 40.7L20.5107 41.86L20.6807 42.31L20.7407 42.47L21.4907 44.41L21.8607 45.36Z" fill="#232323"/>
<path d="M23.8512 41.7L24.6612 43.8L25.0312 44.75L25.8412 46.85L26.2112 47.8L27.0212 49.9L27.3812 50.85L27.5712 51.31L28.1912 50.16L28.0212 49.71L27.9612 49.55L27.2012 47.6L26.8412 46.66L26.0312 44.55L25.6612 43.61L24.8512 41.5L24.4812 40.56L23.6712 38.45L23.3012 37.51L23.1212 37.04L22.4912 38.19L22.6712 38.65L22.7312 38.8L23.4812 40.75L23.8512 41.7Z" fill="#232323"/>
<path d="M25.8409 38.03L26.6509 40.13L27.0209 41.08L27.8309 43.18L28.2009 44.13L29.0109 46.23L29.3809 47.18L29.5609 47.65L30.1909 46.5L30.0109 46.05L29.9209 45.88L29.1709 43.94L28.8009 42.99L27.9909 40.89L27.6209 39.94L26.8309 37.89V37.84L26.6009 37.24C26.2031 37.0836 25.7956 36.9534 25.3809 36.85L25.4709 37.09L25.8409 38.03Z" fill="#232323"/>
<path d="M30.1807 40.47L30.9907 42.57L31.3607 43.52L31.5407 43.99L32.1707 42.84L32.0007 42.41L31.9207 42.22L31.4607 41.03L31.1707 40.28L31.0107 39.87C30.5386 39.4638 30.0372 39.0928 29.5107 38.76L29.8107 39.53L30.1807 40.47Z" fill="#232323"/>
<path d="M14.0205 76.25C13.7023 75.8848 13.3508 75.55 12.9705 75.25C12.2995 74.7029 11.5948 74.1986 10.8605 73.74C10.3905 73.44 10.0105 73.22 9.81051 73.11L9.69051 73.04C9.30051 72.82 8.89051 72.61 8.46051 72.4C7.68665 72.0146 6.88825 71.6805 6.07051 71.4L5.69051 71.27C5.3633 71.1711 5.02899 71.0976 4.69051 71.05C4.50754 71.0336 4.32348 71.0336 4.14051 71.05C4.01753 71.0367 3.89348 71.0367 3.77051 71.05C3.65362 71.0785 3.54373 71.1304 3.44748 71.2026C3.35123 71.2748 3.27062 71.3658 3.21051 71.47L0.080508 77.16C0.0479637 77.2186 0.0275584 77.2833 0.0205078 77.35C0.0319686 77.2843 0.0521468 77.2204 0.080508 77.16C0.140152 77.0554 0.220626 76.9642 0.31695 76.8919C0.413274 76.8197 0.523398 76.768 0.640508 76.74C0.911575 76.6902 1.18944 76.6902 1.46051 76.74L4.01051 72.01C4.34051 71.85 6.26051 72.25 9.21051 73.9C12.1605 75.55 13.5305 77.01 13.5905 77.29L11.0005 82.07C11.4005 82.59 11.5905 83.07 11.3705 83.49L14.4705 77.77C14.535 77.6064 14.5578 77.4294 14.5369 77.2548C14.5159 77.0803 14.4519 76.9136 14.3505 76.77C14.2569 76.5868 14.1464 76.4127 14.0205 76.25Z" fill="#232323"/>
<path d="M10.991 82.05C9.70346 80.724 8.21939 79.6042 6.59098 78.73C5.00702 77.7767 3.27218 77.1003 1.46098 76.73C1.18991 76.6802 0.912044 76.6802 0.640977 76.73C0.523867 76.7579 0.413743 76.8096 0.317419 76.8819C0.221095 76.9541 0.140622 77.0454 0.0809771 77.15C0.052616 77.2103 0.0324378 77.2742 0.0209769 77.34C-0.349023 78.92 4.29098 81.58 4.84098 81.89C6.61098 82.89 8.98098 83.89 10.311 83.89C10.473 83.8924 10.6346 83.8722 10.791 83.83C10.9079 83.8014 11.0178 83.7495 11.114 83.6773C11.2103 83.6051 11.2909 83.5142 11.351 83.41C11.571 83.06 11.381 82.57 10.991 82.05ZM5.34098 81.05C2.62098 79.51 1.26098 78.18 1.02098 77.68C1.57098 77.68 3.41098 78.09 6.10098 79.6C8.79098 81.11 10.171 82.45 10.411 82.95C9.92098 83 8.03098 82.54 5.34098 81.03V81.05Z" fill="#232323"/>
<path d="M34.4606 72.09C31.7806 67.09 32.6206 60.09 34.4606 53.72C32.1506 64.02 34.2906 70.81 36.3706 72.66C39.3706 75.36 43.6806 72.94 45.9606 71.25C46.2106 70.91 46.4706 70.56 46.7206 70.2C45.1442 71.4658 43.201 72.1883 41.1806 72.26C38.6506 72.26 36.7706 70.07 36.7706 66.05C37.8506 72.55 42.7706 73.28 47.0606 69.69L47.6206 68.83C49.2506 66 50.8206 62.76 52.2806 59.58C51.5806 59.58 49.6406 59.22 49.2806 53.32C48.9306 47.63 51.5106 40.18 52.7106 36.64C52.8943 36.0963 52.9065 35.5092 52.7456 34.9583C52.5846 34.4074 52.2582 33.9193 51.8106 33.56L51.6106 33.4C51.4011 33.2309 51.2392 33.01 51.141 32.7593C51.0428 32.5085 51.0117 32.2365 51.0506 31.97L51.4706 28.97C50.1306 28.3 48.7706 25.71 47.5706 23.51C46.9206 22.26 45.9206 19.87 42.5206 19.41C43.1006 21.11 42.1606 24.26 39.9506 28.05L39.4906 29.05L38.3406 31.41L37.7906 32.55L36.9206 34.22C35.9206 36.22 34.9206 38.38 34.0406 40.67C33.8139 41.2167 33.5939 41.7734 33.3806 42.34C30.1506 50.81 27.9806 60.85 31.2806 71.41C31.7866 72.998 32.7941 74.379 34.1519 75.3455C35.5097 76.312 37.1445 76.8119 38.8106 76.77C40.8106 76.63 42.9706 74.98 45.2006 72.25C42.0606 74.59 36.9206 76.65 34.4606 72.09ZM37.3706 40.6C38.9706 35.19 44.1706 28.16 43.8306 21.48C44.7391 23.5804 44.8599 25.9379 44.1706 28.12C43.3806 31.04 39.8006 33.83 37.3806 40.6H37.3706ZM46.2306 24.81C46.8831 25.3772 47.3063 26.163 47.4206 27.02C47.8506 29.02 47.4206 32.34 44.1706 35.42C47.9206 29.81 46.7406 26.41 46.2406 24.8L46.2306 24.81Z" fill="#232323"/>
<path d="M41.8408 77.56C45.8268 77.8494 49.787 78.4243 53.6908 79.28H53.8208C57.3608 81.14 58.3008 81.03 58.3308 81.02C73.6322 74.1638 86.4376 62.7416 94.9908 48.32L92.3208 46.8C90.5608 50.52 87.9208 53.41 84.5708 56.58C90.1608 50.79 92.2808 46.58 92.6608 42.91C91.1246 41.8698 89.8788 40.4553 89.0408 38.8C86.1108 45.19 81.5708 50.11 75.9208 55.48C85.1308 45.94 88.7108 38.92 89.4108 32.88C88.6308 31.57 87.8208 29.88 86.9708 28.21C85.2708 24.76 83.3608 20.9 81.4208 19.21C81.1608 21.66 79.0508 26.41 72.9208 32.85C77.0808 27.91 78.6508 23.51 80.4708 18.41L80.5408 18.18C81.6988 14.2037 82.5908 10.1548 83.2108 6.06L78.2708 0.41C80.2708 16.76 67.4508 35.23 67.2708 35.41L65.3408 38.17L66.3908 34.97C68.9908 27.16 69.8108 7.53 69.9208 5.15L64.0208 0C67.3908 16 61.7308 40.95 54.1608 57.92C50.4208 66.3 46.1308 74.86 41.8408 77.56ZM79.1308 62.69C77.4908 66.06 76.1308 67.34 71.7108 69.41C74.6236 67.709 77.1505 65.4205 79.1308 62.69ZM82.0608 30.16C81.0608 36.07 79.8108 40.1 73.4808 48.37C77.1519 42.7213 80.0351 36.5982 82.0508 30.17L82.0608 30.16ZM81.7708 39.77C82.5108 44.33 75.5108 53.2 69.9208 57.41C73.4408 53.63 81.5508 44.33 81.7708 39.78V39.77ZM50.1708 77.17C56.8008 74.97 60.8208 70.41 62.0508 67C61.0408 72.23 56.9808 75.85 50.1708 77.18V77.17ZM59.9208 55.3C60.4108 60.42 56.6208 67.51 50.4308 72.1C54.2008 68.96 59.4008 60.09 59.9208 55.3ZM60.0208 64.38C59.4608 69.7 53.0208 76.87 44.5008 76.79C51.9908 76.03 57.5708 70.22 60.0708 64.41L60.0208 64.38Z" fill="#232323"/>
<path d="M39.7207 26.4101C41.0607 23.8601 41.7807 21.6401 41.7207 20.3101L39.7207 26.4101Z" fill="#232323"/>
</svg>
