<svg width="78" height="78" viewBox="0 0 78 78" fill="none" xmlns="http://www.w3.org/2000/svg">
<path d="M74.3516 0.71875H49.7422C49.4199 0.71875 49.1562 0.982422 49.1562 1.30469V6.77344C49.1562 7.0957 49.4199 7.35938 49.7422 7.35938H65.4062L45.9434 26.8223C41.0605 23.0625 35.1035 21.0312 28.8438 21.0312C21.334 21.0312 14.2637 23.9609 8.96094 29.2734C3.6582 34.5859 0.71875 41.6465 0.71875 49.1562C0.71875 56.666 3.64844 63.7363 8.96094 69.0391C14.2637 74.3516 21.334 77.2812 28.8438 77.2812C36.3535 77.2812 43.4238 74.3516 48.7266 69.0391C54.0391 63.7363 56.9688 56.666 56.9688 49.1562C56.9688 42.8965 54.9375 36.959 51.1875 32.0762L70.6406 12.623V28.2578C70.6406 28.5801 70.9043 28.8438 71.2266 28.8438H76.6953C77.0176 28.8438 77.2812 28.5801 77.2812 28.2578V3.64844C77.2812 2.03711 75.9629 0.71875 74.3516 0.71875ZM28.8438 69.8594C17.4277 69.8594 8.14062 60.5723 8.14062 49.1562C8.14062 37.7402 17.4277 28.4531 28.8438 28.4531C40.2598 28.4531 49.5469 37.7402 49.5469 49.1562C49.5469 60.5723 40.2598 69.8594 28.8438 69.8594Z" fill="#232323"/>
</svg>
