<svg width="78" height="77" viewBox="0 0 78 77" fill="none" xmlns="http://www.w3.org/2000/svg">
<path d="M77.115 38.223C77.115 37.338 76.68 36.56 76.018 36.072L76.032 36.048L66.708 30.665L72.075 21.369L72.057 21.358C72.2265 20.9749 72.3034 20.5572 72.2813 20.1388C72.2592 19.7204 72.1389 19.3132 71.93 18.95C71.7196 18.5872 71.4265 18.2791 71.0747 18.0508C70.7228 17.8225 70.3221 17.6804 69.905 17.636V17.61H59.137V6.873H59.115C59.0702 6.45644 58.9279 6.05631 58.6996 5.70501C58.4713 5.35371 58.1634 5.06114 57.801 4.851C57.4373 4.64148 57.0292 4.52093 56.61 4.49921C56.1908 4.47748 55.7724 4.55519 55.389 4.726L55.376 4.703L45.895 10.177L40.645 1.083L40.626 1.094C40.3788 0.75573 40.0555 0.480417 39.6822 0.290355C39.3088 0.100293 38.8959 0.00082333 38.477 0C37.592 0 36.813 0.434999 36.326 1.097L36.302 1.083L30.965 10.327L21.775 5.021L21.764 5.04C21.3809 4.87047 20.9632 4.79363 20.5448 4.81569C20.1264 4.83776 19.7192 4.95811 19.356 5.167C18.9929 5.37725 18.6846 5.67023 18.4561 6.0221C18.2276 6.37397 18.0854 6.7748 18.041 7.192H18.014V17.866H7.402V17.887C6.98544 17.9318 6.58531 18.0741 6.23401 18.3024C5.88271 18.5307 5.59014 18.8386 5.38 19.201C5.17103 19.5645 5.05071 19.9722 5.02882 20.3909C5.00692 20.8097 5.08407 21.2277 5.254 21.611L5.231 21.625L10.477 30.712L1.083 36.136L1.094 36.155C0.75573 36.4022 0.480418 36.7255 0.290356 37.0989C0.100293 37.4722 0.00082333 37.8851 0 38.304C0 39.189 0.435 39.968 1.097 40.455L1.083 40.479L10.407 45.862L5.04 55.158L5.058 55.168C4.88847 55.5511 4.81163 55.9688 4.8337 56.3872C4.85576 56.8055 4.97612 57.2128 5.185 57.576C5.39543 57.9388 5.68847 58.2469 6.04033 58.4752C6.39218 58.7035 6.79292 58.8456 7.21 58.89V58.917H17.977V69.653H17.999C18.091 70.469 18.548 71.233 19.313 71.675C19.6768 71.8843 20.0849 72.0047 20.504 72.0264C20.9232 72.0481 21.3415 71.9706 21.725 71.8L21.738 71.823L31.219 66.349L36.469 75.443L36.488 75.432C36.7352 75.7703 37.0585 76.0456 37.4318 76.2356C37.8052 76.4257 38.2181 76.5252 38.637 76.526C39.522 76.526 40.301 76.091 40.788 75.43L40.811 75.443L46.148 66.199L55.339 71.505L55.35 71.486C55.7331 71.6555 56.1508 71.7324 56.5692 71.7103C56.9875 71.6882 57.3948 71.5679 57.758 71.359C58.1211 71.1488 58.4294 70.8558 58.6579 70.5039C58.8864 70.152 59.0286 69.7512 59.073 69.334H59.1V58.661H69.713V58.64C70.1296 58.5952 70.5297 58.4529 70.881 58.2246C71.2323 57.9963 71.5249 57.6884 71.735 57.326C71.9439 56.9623 72.0642 56.5544 72.0861 56.1356C72.108 55.7167 72.0309 55.2985 71.861 54.915L71.884 54.902L66.638 45.815L76.032 40.391L76.021 40.372C76.3594 40.125 76.6348 39.8016 76.8249 39.4283C77.0149 39.0549 77.1143 38.642 77.115 38.223ZM32.272 49.618L22.426 45.268L26.771 52.793L24.315 54.211L17.653 42.674L20.178 41.215L29.708 45.377L25.523 38.129L27.98 36.711L34.64 48.248L32.272 49.618ZM36.924 46.932L30.263 35.394L38.428 30.681L39.676 32.843L33.967 36.138L35.365 38.56L40.952 35.335L42.2 37.495L36.613 40.722L38.131 43.351L43.84 40.056L45.088 42.218L36.924 46.932ZM55.83 36.017L49.232 29.263L51.799 38.343L49.188 39.851L39.223 30.222L41.973 28.634L48.811 35.802L46.194 26.197L48.114 25.089L55.107 32.168L52.317 22.662L55.067 21.074L58.442 34.51L55.83 36.017Z" fill="#232323"/>
</svg>
