<svg width="82" height="82" viewBox="0 0 82 82" fill="none" xmlns="http://www.w3.org/2000/svg">
<path d="M71.75 41L82 51.25L69.1875 56.375L71.75 71.75L56.375 69.1875L51.25 82L41 71.75L30.75 82L25.625 69.1875L10.25 71.75L12.8125 56.375L0 51.25L10.25 41L0 30.75L12.8125 25.625L10.25 10.25L25.625 12.8125L30.75 0L41 10.25L51.25 0L56.375 12.8125L71.75 10.25L69.1875 25.625L82 30.75L71.75 41ZM28.1875 20.5C26.0521 20.5 24.237 21.501 22.7422 23.5029C21.2474 25.5049 20.5 27.9206 20.5 30.75C20.5 33.5794 21.2474 35.9951 22.7422 37.9971C24.237 39.999 26.0521 41 28.1875 41C30.3229 41 32.138 39.999 33.6328 37.9971C35.1276 35.9951 35.875 33.5794 35.875 30.75C35.875 27.9206 35.1276 25.5049 33.6328 23.5029C32.138 21.501 30.3229 20.5 28.1875 20.5ZM53.8125 20.5H51.25C51.0365 20.5 50.8363 20.54 50.6494 20.6201C50.4626 20.7002 50.3158 20.7669 50.209 20.8203C50.1022 20.8737 49.9554 21.0205 49.7686 21.2607C49.5817 21.501 49.4616 21.6611 49.4082 21.7412C49.3548 21.8213 49.2347 22.0348 49.0479 22.3818C48.861 22.7288 48.7409 22.9557 48.6875 23.0625L26.0254 58.9375C25.6517 59.5781 25.7318 60.1654 26.2656 60.6992C26.7995 61.2331 27.4401 61.5 28.1875 61.5H30.75C30.9635 61.5 31.137 61.4867 31.2705 61.46C31.404 61.4333 31.5508 61.3665 31.7109 61.2598C31.8711 61.153 31.9912 61.0596 32.0713 60.9795C32.1514 60.8994 32.2581 60.7526 32.3916 60.5391C32.5251 60.3255 32.6185 60.1654 32.6719 60.0586C32.7253 59.9518 32.832 59.765 32.9922 59.498C33.1523 59.2311 33.2591 59.0443 33.3125 58.9375L55.9746 23.0625C56.3483 22.4219 56.2682 21.8346 55.7344 21.3008C55.2005 20.7669 54.5599 20.5 53.8125 20.5ZM53.8125 41C51.6771 41 49.862 42.001 48.3672 44.0029C46.8724 46.0049 46.125 48.4206 46.125 51.25C46.125 54.0794 46.8724 56.4951 48.3672 58.4971C49.862 60.499 51.6771 61.5 53.8125 61.5C55.9479 61.5 57.763 60.499 59.2578 58.4971C60.7526 56.4951 61.5 54.0794 61.5 51.25C61.5 48.4206 60.7526 46.0049 59.2578 44.0029C57.763 42.001 55.9479 41 53.8125 41ZM53.8125 56.375C53.1185 56.375 52.5179 55.8678 52.0107 54.8535C51.5036 53.8392 51.25 52.6247 51.25 51.21C51.25 49.7952 51.5036 48.5941 52.0107 47.6064C52.5179 46.6188 53.1185 46.125 53.8125 46.125C54.5065 46.125 55.1071 46.6188 55.6143 47.6064C56.1214 48.5941 56.375 49.7952 56.375 51.21C56.375 52.6247 56.1214 53.8392 55.6143 54.8535C55.1071 55.8678 54.5065 56.375 53.8125 56.375ZM28.1875 35.875C27.4935 35.875 26.8929 35.3678 26.3857 34.3535C25.8786 33.3392 25.625 32.1247 25.625 30.71C25.625 29.2952 25.8786 28.0941 26.3857 27.1064C26.8929 26.1188 27.4935 25.625 28.1875 25.625C28.8815 25.625 29.4821 26.1188 29.9893 27.1064C30.4964 28.0941 30.75 29.2952 30.75 30.71C30.75 32.1247 30.4964 33.3392 29.9893 34.3535C29.4821 35.3678 28.8815 35.875 28.1875 35.875Z" fill="#232323"/>
</svg>
