<svg width="58" height="82" viewBox="0 0 58 82" fill="none" xmlns="http://www.w3.org/2000/svg">
<path d="M50.407 26.973C46.234 19.995 44.131 15.671 43.163 12.783C43.068 10.283 43.476 7.241 43.795 4.067C43.828 3.738 43.76 3.438 43.624 3.158C43.602 3.052 43.55 2.959 43.47 2.891C42.16 1.017 37.189 0.286 33.414 0C33.236 0.563 33.024 1.286 32.788 2.214L33.598 2.092C33.628 2.053 33.64 2.005 33.674 1.968C34.206 1.399 35.098 1.369 35.667 1.9C36.236 2.432 36.266 3.324 35.735 3.893C35.605 4.032 35.453 4.136 35.29 4.211C35.524 4.453 35.676 4.776 35.688 5.139C35.714 5.917 35.105 6.57 34.327 6.596C33.804 6.614 33.343 6.341 33.086 5.927L32.022 5.626C31.814 6.667 31.6 7.831 31.387 9.143L32.252 8.886C32.269 8.866 32.274 8.841 32.292 8.821C32.809 8.267 33.677 8.238 34.231 8.755C34.785 9.272 34.814 10.14 34.297 10.694C34.148 10.854 33.967 10.957 33.775 11.029C34.069 11.271 34.265 11.628 34.278 12.038C34.304 12.795 33.711 13.43 32.953 13.456C32.434 13.474 31.977 13.197 31.73 12.779L30.883 12.534C30.724 13.71 30.568 14.977 30.417 16.331L30.975 16.141C31.034 16.025 31.087 15.907 31.18 15.808C31.712 15.239 32.604 15.209 33.173 15.74C33.742 16.272 33.772 17.164 33.241 17.733C33.095 17.889 32.921 17.995 32.735 18.07C33.16 18.301 33.459 18.739 33.476 19.258C33.502 20.036 32.893 20.689 32.115 20.715C31.531 20.735 31.018 20.396 30.787 19.897L30.087 19.553C29.976 20.732 29.871 21.971 29.771 23.27L30.651 22.97C30.706 22.858 30.759 22.745 30.849 22.649C31.344 22.119 32.174 22.091 32.704 22.586C33.234 23.081 33.262 23.911 32.767 24.441C32.626 24.592 32.455 24.691 32.274 24.76C32.677 24.972 32.97 25.372 32.986 25.86C33.011 26.584 32.443 27.192 31.719 27.216C31.175 27.234 30.698 26.92 30.483 26.455L29.574 26.008C29.355 29.232 28.895 29.026 28.895 29.026C28.895 29.026 28.435 29.232 28.214 26.008L27.305 26.455C27.09 26.919 26.613 27.234 26.069 27.216C25.345 27.191 24.777 26.584 24.802 25.86C24.819 25.372 25.111 24.972 25.514 24.76C25.333 24.691 25.162 24.592 25.021 24.441C24.526 23.911 24.554 23.081 25.084 22.586C25.614 22.091 26.444 22.119 26.939 22.649C27.028 22.745 27.081 22.858 27.137 22.97L28.017 23.27C27.917 21.97 27.812 20.732 27.701 19.553L27.001 19.897C26.77 20.396 26.257 20.734 25.673 20.715C24.895 20.689 24.285 20.036 24.312 19.258C24.33 18.74 24.628 18.301 25.053 18.07C24.868 17.995 24.693 17.889 24.547 17.733C24.015 17.164 24.046 16.272 24.615 15.74C25.184 15.208 26.076 15.239 26.608 15.808C26.701 15.907 26.755 16.026 26.813 16.141L27.371 16.331C27.22 14.976 27.065 13.71 26.905 12.534L26.058 12.779C25.811 13.197 25.354 13.474 24.835 13.456C24.078 13.43 23.485 12.795 23.51 12.038C23.524 11.628 23.72 11.271 24.013 11.029C23.821 10.957 23.64 10.854 23.491 10.694C22.974 10.14 23.003 9.272 23.557 8.755C24.111 8.238 24.979 8.267 25.496 8.821C25.514 8.84 25.519 8.866 25.536 8.886L26.401 9.143C26.188 7.831 25.974 6.667 25.766 5.626L24.702 5.927C24.444 6.341 23.983 6.614 23.461 6.596C22.683 6.57 22.073 5.917 22.1 5.139C22.112 4.776 22.264 4.453 22.498 4.211C22.335 4.137 22.183 4.032 22.053 3.893C21.521 3.324 21.552 2.432 22.121 1.9C22.69 1.368 23.582 1.399 24.114 1.968C24.148 2.005 24.16 2.052 24.19 2.092L25 2.214C24.764 1.286 24.552 0.563 24.374 0C20.622 0.284 15.689 1.009 14.343 2.858C14.247 2.933 14.182 3.038 14.161 3.164C14.027 3.442 13.96 3.741 13.993 4.068C14.312 7.243 14.719 10.286 14.625 12.786C13.657 15.674 11.555 19.996 7.38402 26.97C-2.47598 43.012 -2.46098 60.857 7.42702 80.008C7.44002 80.034 7.46601 80.045 7.48302 80.068C7.48902 80.077 7.49801 80.082 7.50401 80.091C7.55001 80.145 7.59802 80.191 7.66002 80.221C7.70502 80.246 7.75202 80.269 7.80602 80.279C12.469 81.125 17.177 81.55 21.864 81.55C23.691 81.55 25.516 81.486 27.333 81.357C27.516 81.344 27.662 81.23 27.738 81.076L27.852 81.154C28.258 80.559 29.053 60.447 23.79 52.504C24.478 52.107 25.099 51.64 25.658 51.109C25.932 51.221 26.458 51.372 27.325 51.372C27.759 51.372 28.282 51.33 28.892 51.23C29.503 51.33 30.026 51.372 30.46 51.372C31.328 51.372 31.853 51.22 32.127 51.108C32.686 51.639 33.307 52.106 33.995 52.503C28.732 60.446 29.526 80.558 29.932 81.153L30.046 81.075C30.122 81.228 30.269 81.343 30.452 81.356C32.268 81.485 34.093 81.549 35.92 81.549C40.607 81.549 45.316 81.124 49.979 80.278C50.033 80.268 50.081 80.244 50.127 80.219C50.184 80.192 50.227 80.148 50.271 80.1C50.281 80.088 50.295 80.078 50.304 80.065C50.32 80.043 50.346 80.032 50.359 80.007C60.249 60.856 60.264 43.011 50.407 26.973ZM1.05602 50.358C1.88402 49.422 2.74302 48.574 3.62901 47.816C3.80202 48.498 4.00102 49.164 4.22802 49.799C4.56202 50.683 4.94002 51.512 5.34302 52.272C5.75102 53.03 6.16602 53.728 6.58602 54.348C7.09402 55.105 7.58002 55.744 8.02302 56.284C7.31902 56.816 6.10002 57.74 4.52602 58.952C3.11602 60.037 2.26002 60.543 1.76302 60.787C1.14802 57.252 0.913015 53.774 1.05602 50.358ZM26.97 80.372C20.746 80.791 14.438 80.442 8.20901 79.329C7.95602 78.835 7.70702 78.342 7.46702 77.85C11.274 78.406 15.106 78.696 18.931 78.696C21.644 78.696 24.353 78.551 27.048 78.27C27.024 79.22 26.992 79.941 26.97 80.372ZM27.07 77.262C20.402 77.967 13.636 77.805 6.95802 76.771C6.75302 76.334 6.55302 75.897 6.35902 75.462C9.43002 75.825 12.516 76.014 15.601 76.014C19.439 76.014 23.277 75.727 27.084 75.166C27.085 75.922 27.08 76.627 27.07 77.262ZM27.075 74.159C20.057 75.206 12.932 75.289 5.89202 74.404C5.71502 73.989 5.54702 73.575 5.37901 73.162C7.67101 73.364 9.97001 73.474 12.272 73.474C17.203 73.474 22.141 73.002 27.027 72.078C27.051 72.799 27.067 73.494 27.075 74.159ZM26.989 71.072C19.729 72.459 12.352 72.821 5.05902 72.137C5.03002 72.135 5.00302 72.144 4.97502 72.147C4.81902 71.745 4.66501 71.343 4.51801 70.942C5.99502 71.026 7.47402 71.076 8.95502 71.076C14.938 71.076 20.944 70.385 26.875 69.021C26.922 69.717 26.959 70.402 26.989 71.072ZM26.802 68.011C19.308 69.748 11.694 70.39 4.16002 69.922C3.92902 69.257 3.71002 68.593 3.50401 67.932C4.96501 68.073 8.87102 68.325 14.685 67.77C21.151 67.152 25.688 66.192 26.615 65.987C26.688 66.665 26.749 67.341 26.802 68.011ZM28.247 41.963C27.813 49.523 23.865 53.219 16.176 53.262C15.9 53.264 15.677 53.489 15.679 53.765C15.68 54.04 15.904 54.262 16.179 54.262C16.18 54.262 16.181 54.262 16.182 54.262C18.816 54.247 21.052 53.807 22.896 52.957C23.912 54.447 24.689 56.374 25.279 58.524C23.783 58.349 19.129 57.806 16.179 57.456C14.275 57.231 12.27 56.764 10.814 56.379C10.677 56.238 10.513 56.065 10.307 55.834C9.78102 55.236 9.03502 54.359 8.26902 53.218C7.88102 52.651 7.50002 52.012 7.12502 51.324C6.75602 50.633 6.41102 49.883 6.10402 49.091C5.81402 48.294 5.54402 47.459 5.37502 46.591C5.36602 46.552 5.36202 46.508 5.35402 46.469C14.565 39.886 25.586 41.371 28.273 41.865C28.264 41.898 28.249 41.928 28.247 41.963ZM34.894 52.957C36.739 53.808 38.975 54.248 41.609 54.262C41.61 54.262 41.611 54.262 41.612 54.262C41.886 54.262 42.11 54.04 42.112 53.765C42.114 53.489 41.891 53.264 41.615 53.262C33.927 53.219 29.978 49.523 29.543 41.963C29.541 41.928 29.528 41.898 29.52 41.866C32.211 41.371 43.229 39.889 52.437 46.471C52.429 46.51 52.425 46.554 52.416 46.593C52.246 47.461 51.976 48.296 51.687 49.093C51.38 49.885 51.036 50.635 50.666 51.326C50.291 52.015 49.91 52.653 49.522 53.22C48.755 54.361 48.01 55.238 47.484 55.836C47.278 56.067 47.114 56.239 46.977 56.381C45.521 56.766 43.515 57.232 41.611 57.458C38.661 57.807 34.007 58.351 32.511 58.526C33.101 56.374 33.878 54.447 34.894 52.957ZM49.58 79.329C43.35 80.441 37.046 80.791 30.82 80.372C30.798 79.941 30.766 79.22 30.741 78.27C33.436 78.551 36.145 78.696 38.859 78.696C42.684 78.696 46.515 78.407 50.322 77.85C50.082 78.342 49.834 78.835 49.58 79.329ZM50.832 76.771C44.152 77.804 37.388 77.968 30.72 77.262C30.71 76.627 30.704 75.922 30.707 75.165C34.514 75.726 38.351 76.013 42.19 76.013C45.275 76.013 48.361 75.824 51.432 75.461C51.238 75.898 51.037 76.334 50.832 76.771ZM51.898 74.404C44.856 75.289 37.732 75.205 30.715 74.158C30.723 73.494 30.739 72.798 30.763 72.077C35.65 73.001 40.587 73.473 45.519 73.473C47.82 73.473 50.12 73.364 52.412 73.161C52.243 73.576 52.076 73.989 51.898 74.404ZM52.815 72.147C52.787 72.144 52.761 72.135 52.731 72.137C45.441 72.822 38.064 72.46 30.801 71.072C30.83 70.403 30.868 69.718 30.914 69.021C36.845 70.385 42.85 71.076 48.834 71.076C50.316 71.076 51.795 71.026 53.271 70.942C53.125 71.343 52.971 71.745 52.815 72.147ZM53.63 69.922C46.096 70.394 38.481 69.748 30.988 68.011C31.041 67.341 31.102 66.665 31.174 65.986C32.101 66.191 36.638 67.151 43.105 67.769C48.92 68.325 52.825 68.072 54.286 67.931C54.08 68.594 53.861 69.257 53.63 69.922ZM53.263 58.952C51.689 57.74 50.471 56.816 49.766 56.284C50.209 55.744 50.696 55.105 51.203 54.348C51.623 53.729 52.038 53.03 52.446 52.272C52.85 51.512 53.227 50.682 53.561 49.799C53.788 49.165 53.988 48.498 54.16 47.816C55.046 48.574 55.906 49.422 56.733 50.358C56.875 53.774 56.641 57.251 56.025 60.786C55.53 60.543 54.673 60.037 53.263 58.952Z" fill="#232323"/>
</svg>
