<svg width="75" height="75" viewBox="0 0 75 75" fill="none" xmlns="http://www.w3.org/2000/svg">
<g clip-path="url(#clip0)">
<path d="M74.4792 2.98955C74.1061 2.58028 73.5777 2.35107 73.0242 2.35107H44.8145C44.2609 2.35107 43.7326 2.58028 43.3595 2.98955C42.9847 3.39686 42.7992 3.94266 42.8456 4.49571L43.0767 7.21488H74.7619L74.9928 4.49571C75.0394 3.94266 74.8546 3.39701 74.4792 2.98955Z" fill="#232323"/>
<path d="M47.3507 57.4168H70.4902L74.4423 10.9576H43.396L47.3507 57.4168Z" fill="#232323"/>
<path d="M47.5701 67.7606C47.5701 70.4604 49.7583 72.6489 52.4578 72.6489H65.3824C68.0822 72.6489 70.2702 70.4604 70.2702 67.7606V61.5175H47.5701V67.7606Z" fill="#232323"/>
<path d="M39.9065 54.9021H14.9979L4.98328 59.4439C4.96106 59.4534 4.93687 59.4587 4.91479 59.4687V64.008C4.91479 68.7814 8.78437 72.6489 13.5555 72.6489H32.8886C37.6597 72.6489 41.5293 68.7814 41.5293 64.008V56.5248C41.5294 55.6284 40.8031 54.9021 39.9065 54.9021Z" fill="#232323"/>
<path d="M32.5355 46.9508L22.477 51.5125H35.4839C35.8977 51.5125 36.2805 51.2951 36.4978 50.9444C36.712 50.5886 36.729 50.1503 36.5418 49.7802C35.893 48.5174 34.7503 47.582 33.3857 47.1923L32.5355 46.9508Z" fill="#232323"/>
<path d="M34.1605 40.2132C34.3116 39.8089 34.2971 39.363 34.1191 38.9707L33.6854 38.0205C33.0469 36.6118 31.6582 35.7784 30.206 35.7784C29.6796 35.7784 29.1434 35.8903 28.632 36.1197L2.24175 48.0863C0.32178 48.9564 -0.528668 51.2203 0.340981 53.1403L0.77248 54.0929C0.950582 54.4827 1.2767 54.7902 1.67932 54.9411C1.86151 55.0092 2.05654 55.0435 2.24916 55.0435C2.48078 55.0435 2.71014 54.9949 2.92196 54.8998L33.3104 41.12C33.7027 40.9421 34.0071 40.6176 34.1605 40.2132Z" fill="#232323"/>
</g>
<defs>
<clipPath id="clip0">
<rect width="75" height="75" fill="white"/>
</clipPath>
</defs>
</svg>
