<svg width="98" height="111" viewBox="0 0 98 111" fill="none" xmlns="http://www.w3.org/2000/svg">
<path d="M53.5992 75.2672C57.6297 71.2367 59.8555 65.8678 59.8555 60.168C59.8555 54.4606 57.6372 49.0992 53.5992 45.0687C49.5687 41.0383 44.1998 38.8125 38.5 38.8125C32.8002 38.8125 27.4313 41.0308 23.4008 45.0687C19.3703 49.1067 17.1445 54.4606 17.1445 60.168C17.1445 64.9654 18.7161 69.5223 21.6111 73.2444C22.1601 73.9513 22.7541 74.6205 23.3933 75.2672C24.0324 75.9063 24.7092 76.5004 25.4085 77.0493C28.3862 79.3653 31.8979 80.8392 35.6426 81.3354V89.3438H27.0703C26.7395 89.3438 26.4688 89.6145 26.4688 89.9453V94.457C26.4688 94.7879 26.7395 95.0586 27.0703 95.0586H35.6426V105.586C35.6426 105.917 35.9133 106.188 36.2441 106.188H40.7559C41.0867 106.188 41.3574 105.917 41.3574 105.586V95.0586H49.9297C50.2605 95.0586 50.5312 94.7879 50.5312 94.457V89.9453C50.5312 89.6145 50.2605 89.3438 49.9297 89.3438H41.3574V81.3354C45.9819 80.7188 50.2455 78.6209 53.5992 75.2672ZM38.5 75.8086C34.3191 75.8086 30.4015 74.1844 27.4388 71.2292C24.4836 68.274 22.8594 64.3488 22.8594 60.168C22.8594 55.9871 24.4836 52.0694 27.4388 49.1067C30.3939 46.144 34.3191 44.5273 38.5 44.5273C42.6809 44.5273 46.5985 46.1516 49.5612 49.1067C52.5164 52.0619 54.1406 55.9871 54.1406 60.168C54.1406 64.3488 52.5164 68.2665 49.5612 71.2292C46.5985 74.1844 42.6809 75.8086 38.5 75.8086Z" fill="#232323"/>
<path d="M86.7207 9.02344H67.7715C67.5233 9.02344 67.3203 9.22646 67.3203 9.47461V13.6855C67.3203 13.9337 67.5233 14.1367 67.7715 14.1367H79.8328L64.8464 29.1231C61.0866 26.2281 56.4997 24.6641 51.6797 24.6641C45.8972 24.6641 40.453 26.9199 36.3699 31.0105C32.2868 35.1012 30.0234 40.5378 30.0234 46.3203C30.0234 52.1028 32.2793 57.547 36.3699 61.6301C40.453 65.7207 45.8972 67.9766 51.6797 67.9766C57.4622 67.9766 62.9063 65.7207 66.9895 61.6301C71.0801 57.547 73.3359 52.1028 73.3359 46.3203C73.3359 41.5003 71.7719 36.9284 68.8844 33.1687L83.8633 18.1897V30.2285C83.8633 30.4767 84.0663 30.6797 84.3145 30.6797H88.5254C88.7735 30.6797 88.9766 30.4767 88.9766 30.2285V11.2793C88.9766 10.0386 87.9614 9.02344 86.7207 9.02344ZM51.6797 62.2617C42.8894 62.2617 35.7383 55.1106 35.7383 46.3203C35.7383 37.53 42.8894 30.3789 51.6797 30.3789C60.47 30.3789 67.6211 37.53 67.6211 46.3203C67.6211 55.1106 60.47 62.2617 51.6797 62.2617Z" fill="#232323"/>
</svg>
