<svg width="56" height="88" viewBox="0 0 56 88" fill="none" xmlns="http://www.w3.org/2000/svg">
<path d="M47.6094 47.5938C52.8438 42.3594 55.7344 35.3867 55.7344 27.9844C55.7344 20.5723 52.8535 13.6094 47.6094 8.375C42.375 3.14062 35.4023 0.25 28 0.25C20.5977 0.25 13.625 3.13086 8.39063 8.375C3.15625 13.6191 0.265625 20.5723 0.265625 27.9844C0.265625 34.2148 2.30664 40.1328 6.06641 44.9668C6.7793 45.8848 7.55078 46.7539 8.38086 47.5938C9.21094 48.4238 10.0898 49.1953 10.998 49.9082C14.8652 52.916 19.4258 54.8301 24.2891 55.4746V65.875H13.1562C12.7266 65.875 12.375 66.2266 12.375 66.6562V72.5156C12.375 72.9453 12.7266 73.2969 13.1562 73.2969H24.2891V86.9688C24.2891 87.3984 24.6406 87.75 25.0703 87.75H30.9297C31.3594 87.75 31.7109 87.3984 31.7109 86.9688V73.2969H42.8438C43.2734 73.2969 43.625 72.9453 43.625 72.5156V66.6562C43.625 66.2266 43.2734 65.875 42.8438 65.875H31.7109V55.4746C37.7168 54.6738 43.2539 51.9492 47.6094 47.5938ZM28 48.2969C22.5703 48.2969 17.4824 46.1875 13.6348 42.3496C9.79687 38.5117 7.6875 33.4141 7.6875 27.9844C7.6875 22.5547 9.79687 17.4668 13.6348 13.6191C17.4727 9.77148 22.5703 7.67188 28 7.67188C33.4297 7.67188 38.5176 9.78125 42.3652 13.6191C46.2031 17.457 48.3125 22.5547 48.3125 27.9844C48.3125 33.4141 46.2031 38.502 42.3652 42.3496C38.5176 46.1875 33.4297 48.2969 28 48.2969Z" fill="#232323"/>
</svg>
