<svg width="14" height="11" viewBox="0 0 14 11" fill="none" xmlns="http://www.w3.org/2000/svg">
<path fill-rule="evenodd" clip-rule="evenodd" d="M11.1402 0.765391C11.3588 0.548628 11.654 0.426635 11.9619 0.425786C12.2698 0.424936 12.5657 0.545299 12.7856 0.760852C13.0054 0.976405 13.1316 1.26983 13.1369 1.57769C13.1421 1.88554 13.026 2.1831 12.8136 2.40602L6.5761 10.2029C6.4689 10.3184 6.33952 10.411 6.19569 10.4753C6.05185 10.5397 5.89653 10.5743 5.739 10.5772C5.58147 10.5801 5.42496 10.5513 5.27885 10.4923C5.13274 10.4334 5.00001 10.3456 4.88861 10.2341L0.755794 6.09977C0.640659 5.99248 0.548312 5.86311 0.484262 5.71936C0.420212 5.57561 0.385771 5.42043 0.382995 5.26308C0.380219 5.10573 0.409164 4.94944 0.468103 4.80352C0.527042 4.6576 0.614768 4.52505 0.726047 4.41377C0.837326 4.30249 0.969879 4.21476 1.1158 4.15582C1.26172 4.09689 1.41801 4.06794 1.57536 4.07072C1.73271 4.07349 1.88789 4.10793 2.03163 4.17198C2.17538 4.23603 2.30476 4.32838 2.41204 4.44352L5.68392 7.71383L11.1105 0.799767C11.1202 0.787663 11.1306 0.776181 11.1417 0.765391H11.1402Z" fill="#FB565D"/>
</svg>
