<svg width="19" height="19" viewBox="0 0 19 19" fill="none" xmlns="http://www.w3.org/2000/svg">
<path fill-rule="evenodd" clip-rule="evenodd" d="M5.18959 5.24214C5.31814 5.11203 5.49312 5.03832 5.67602 5.03722C5.85892 5.03613 6.03476 5.10773 6.16487 5.23629L10.0894 9.11401C10.2195 9.24256 10.2932 9.41754 10.2943 9.60044C10.2954 9.78334 10.2238 9.95918 10.0952 10.0893L6.21752 14.0138C6.08897 14.1439 5.91399 14.2176 5.73109 14.2187C5.54819 14.2198 5.37234 14.1482 5.24224 14.0197C5.11213 13.8911 5.03842 13.7161 5.03733 13.5332C5.03623 13.3503 5.10783 13.1745 5.23639 13.0444L8.6294 9.61042L5.19544 6.21742C5.06533 6.08886 4.99162 5.91389 4.99053 5.73099C4.98943 5.54809 5.06103 5.37224 5.18959 5.24214Z" fill="#ACACAC"/>
<path fill-rule="evenodd" clip-rule="evenodd" d="M9.11996 10.0952C8.98985 9.96663 8.91615 9.79166 8.91505 9.60876C8.91395 9.42586 8.98556 9.25001 9.11411 9.11991L12.9918 5.19538C13.1204 5.06528 13.2954 4.99157 13.4783 4.99047C13.6612 4.98937 13.837 5.06098 13.9671 5.18953C14.0972 5.31809 14.1709 5.49306 14.172 5.67596C14.1731 5.85886 14.1015 6.03471 13.973 6.16481L10.58 9.59877L14.0139 12.9918C14.144 13.1203 14.2177 13.2953 14.2188 13.4782C14.2199 13.6611 14.1483 13.837 14.0198 13.9671C13.8912 14.0972 13.7162 14.1709 13.5333 14.172C13.3504 14.1731 13.1746 14.1015 13.0445 13.9729L9.11996 10.0952Z" fill="#ACACAC"/>
</svg>
