<svg width="24" height="17" viewBox="0 0 24 17" fill="none" xmlns="http://www.w3.org/2000/svg">
<path d="M5.72949 10.5835C6.32983 10.5834 6.91178 10.7907 7.37684 11.1703C7.8419 11.55 8.16151 12.0786 8.28158 12.6668H15.6253V2.25016H4.16699C3.61446 2.25016 3.08455 2.46966 2.69385 2.86036C2.30315 3.25106 2.08366 3.78096 2.08366 4.3335V12.6668H3.17741C3.29748 12.0786 3.61709 11.55 4.08215 11.1703C4.54721 10.7907 5.12915 10.5834 5.72949 10.5835ZM5.72949 15.7918C5.12915 15.792 4.54721 15.5847 4.08215 15.205C3.61709 14.8254 3.29748 14.2967 3.17741 13.7085H1.04199V4.3335C1.04199 3.50469 1.37123 2.70984 1.95728 2.12379C2.54333 1.53774 3.33819 1.2085 4.16699 1.2085H15.6253C15.9016 1.2085 16.1665 1.31824 16.3619 1.51359C16.5572 1.70894 16.667 1.9739 16.667 2.25016V4.3335H19.792L22.917 8.48037V13.7085H20.7816C20.662 14.2972 20.3427 14.8265 19.8775 15.2066C19.4124 15.5868 18.8302 15.7944 18.2295 15.7944C17.6288 15.7944 17.0466 15.5868 16.5814 15.2066C16.1163 14.8265 15.7969 14.2972 15.6774 13.7085H8.28158C8.16151 14.2967 7.8419 14.8254 7.37684 15.205C6.91178 15.5847 6.32983 15.792 5.72949 15.7918ZM5.72949 11.6252C5.31509 11.6252 4.91766 11.7898 4.62464 12.0828C4.33161 12.3758 4.16699 12.7733 4.16699 13.1877C4.16699 13.6021 4.33161 13.9995 4.62464 14.2925C4.91766 14.5855 5.31509 14.7502 5.72949 14.7502C6.14389 14.7502 6.54132 14.5855 6.83435 14.2925C7.12737 13.9995 7.29199 13.6021 7.29199 13.1877C7.29199 12.7733 7.12737 12.3758 6.83435 12.0828C6.54132 11.7898 6.14389 11.6252 5.72949 11.6252ZM18.2295 10.5835C18.8298 10.5834 19.4118 10.7907 19.8768 11.1703C20.3419 11.55 20.6615 12.0786 20.7816 12.6668H21.8753V8.82933L21.6274 8.50016H16.667V11.1043C17.1174 10.7656 17.6659 10.5827 18.2295 10.5835ZM18.2295 11.6252C17.8151 11.6252 17.4177 11.7898 17.1246 12.0828C16.8316 12.3758 16.667 12.7733 16.667 13.1877C16.667 13.6021 16.8316 13.9995 17.1246 14.2925C17.4177 14.5855 17.8151 14.7502 18.2295 14.7502C18.6439 14.7502 19.0413 14.5855 19.3343 14.2925C19.6274 13.9995 19.792 13.6021 19.792 13.1877C19.792 12.7733 19.6274 12.3758 19.3343 12.0828C19.0413 11.7898 18.6439 11.6252 18.2295 11.6252ZM16.667 5.37516V7.4585H20.843L19.2712 5.37516H16.667Z" fill="#FD585E" stroke="#FD585E" stroke-width="0.5"/>
</svg>
