<svg width="8" height="8" viewBox="0 0 8 8" fill="none" xmlns="http://www.w3.org/2000/svg">
<path fill-rule="evenodd" clip-rule="evenodd" d="M4 1.5C4.13261 1.5 4.25979 1.55268 4.35355 1.64645C4.44732 1.74021 4.5 1.86739 4.5 2V7C4.5 7.13261 4.44732 7.25979 4.35355 7.35355C4.25979 7.44732 4.13261 7.5 4 7.5C3.86739 7.5 3.74021 7.44732 3.64645 7.35355C3.55268 7.25979 3.5 7.13261 3.5 7V2C3.5 1.86739 3.55268 1.74021 3.64645 1.64645C3.74021 1.55268 3.86739 1.5 4 1.5Z" fill="#FD454D"/>
<path fill-rule="evenodd" clip-rule="evenodd" d="M3.64602 0.645917C3.69247 0.599354 3.74764 0.562411 3.80839 0.537204C3.86913 0.511998 3.93425 0.499023 4.00002 0.499023C4.06579 0.499023 4.13091 0.511998 4.19165 0.537204C4.2524 0.562411 4.30758 0.599354 4.35402 0.645917L7.35402 3.64592C7.44791 3.7398 7.50065 3.86714 7.50065 3.99992C7.50065 4.13269 7.44791 4.26003 7.35402 4.35392C7.26013 4.4478 7.1328 4.50055 7.00002 4.50055C6.86725 4.50055 6.73991 4.4478 6.64602 4.35392L4.00002 1.70692L1.35402 4.35392C1.30753 4.40041 1.25234 4.43728 1.19161 4.46244C1.13087 4.4876 1.06577 4.50055 1.00002 4.50055C0.934278 4.50055 0.869177 4.4876 0.808438 4.46244C0.747698 4.43728 0.692509 4.40041 0.646021 4.35392C0.599533 4.30743 0.562657 4.25224 0.537498 4.1915C0.512339 4.13076 0.49939 4.06566 0.49939 3.99992C0.49939 3.93417 0.512339 3.86907 0.537498 3.80833C0.562657 3.74759 0.599533 3.6924 0.646021 3.64592L3.64602 0.645917Z" fill="#FD454D"/>
</svg>
