<svg width="8" height="8" viewBox="0 0 8 8" fill="none" xmlns="http://www.w3.org/2000/svg">
<path fill-rule="evenodd" clip-rule="evenodd" d="M4 6.5C3.86739 6.5 3.74021 6.44732 3.64645 6.35355C3.55268 6.25979 3.5 6.13261 3.5 6L3.5 1C3.5 0.867392 3.55268 0.740214 3.64645 0.646446C3.74021 0.552678 3.86739 0.5 4 0.5C4.13261 0.5 4.25979 0.552678 4.35355 0.646446C4.44732 0.740214 4.5 0.867392 4.5 1L4.5 6C4.5 6.13261 4.44732 6.25979 4.35355 6.35355C4.25979 6.44732 4.13261 6.5 4 6.5Z" fill="#313131" fill-opacity="0.7"/>
<path fill-rule="evenodd" clip-rule="evenodd" d="M4.35398 7.35408C4.30753 7.40065 4.25236 7.43759 4.19161 7.4628C4.13087 7.488 4.06575 7.50098 3.99998 7.50098C3.93421 7.50098 3.86909 7.488 3.80835 7.4628C3.7476 7.43759 3.69242 7.40065 3.64598 7.35408L0.645978 4.35408C0.552092 4.2602 0.499347 4.13286 0.499347 4.00008C0.499347 3.86731 0.552092 3.73997 0.645978 3.64608C0.739865 3.5522 0.867203 3.49945 0.999979 3.49945C1.13275 3.49945 1.26009 3.5522 1.35398 3.64608L3.99998 6.29308L6.64598 3.64608C6.69247 3.59959 6.74766 3.56272 6.80839 3.53756C6.86913 3.5124 6.93423 3.49945 6.99998 3.49945C7.06572 3.49945 7.13082 3.5124 7.19156 3.53756C7.2523 3.56272 7.30749 3.59959 7.35398 3.64608C7.40047 3.69257 7.43734 3.74776 7.4625 3.8085C7.48766 3.86924 7.50061 3.93434 7.50061 4.00008C7.50061 4.06583 7.48766 4.13093 7.4625 4.19167C7.43734 4.25241 7.40047 4.3076 7.35398 4.35408L4.35398 7.35408Z" fill="#313131" fill-opacity="0.7"/>
</svg>
