<svg width="21" height="18" viewBox="0 0 21 18" fill="none" xmlns="http://www.w3.org/2000/svg">
<path d="M19.1603 1.99998C18.1002 0.93719 16.6951 0.288522 15.1986 0.171152C13.7021 0.0537822 12.213 0.475448 11.0003 1.35998C9.72793 0.41362 8.14427 -0.0155064 6.5682 0.15902C4.99212 0.333546 3.54072 1.09876 2.50625 2.30057C1.47178 3.50237 0.931098 5.0515 0.993077 6.636C1.05506 8.22049 1.71509 9.72265 2.84028 10.84L9.05028 17.06C9.57029 17.5718 10.2707 17.8586 11.0003 17.8586C11.7299 17.8586 12.4303 17.5718 12.9503 17.06L19.1603 10.84C20.3279 9.66525 20.9832 8.07626 20.9832 6.41998C20.9832 4.76371 20.3279 3.17472 19.1603 1.99998ZM17.7503 9.45998L11.5403 15.67C11.4696 15.7413 11.3855 15.798 11.2928 15.8366C11.2001 15.8753 11.1007 15.8952 11.0003 15.8952C10.8999 15.8952 10.8004 15.8753 10.7077 15.8366C10.615 15.798 10.5309 15.7413 10.4603 15.67L4.25028 9.42998C3.46603 8.62833 3.02689 7.55145 3.02689 6.42998C3.02689 5.30852 3.46603 4.23164 4.25028 3.42998C5.04943 2.64097 6.12725 2.19855 7.25028 2.19855C8.3733 2.19855 9.45112 2.64097 10.2503 3.42998C10.3432 3.52371 10.4538 3.59811 10.5757 3.64887C10.6976 3.69964 10.8283 3.72578 10.9603 3.72578C11.0923 3.72578 11.223 3.69964 11.3449 3.64887C11.4667 3.59811 11.5773 3.52371 11.6703 3.42998C12.4694 2.64097 13.5472 2.19855 14.6703 2.19855C15.7933 2.19855 16.8711 2.64097 17.6703 3.42998C18.4653 4.22113 18.9189 5.29217 18.9338 6.41367C18.9488 7.53516 18.5239 8.61792 17.7503 9.42998V9.45998Z" fill="#313131" fill-opacity="0.8"/>
</svg>
