<svg width="24" height="21" viewBox="0 0 24 21" fill="none" xmlns="http://www.w3.org/2000/svg">
<path d="M23.428 4.60069C23.0613 3.78041 22.5325 3.03708 21.8712 2.41232C21.2095 1.78569 20.4293 1.28771 19.573 0.945475C18.6851 0.589186 17.7328 0.406816 16.7713 0.408954C15.4225 0.408954 14.1065 0.765754 12.9628 1.43971C12.6892 1.60093 12.4293 1.77801 12.1831 1.97094C11.9368 1.77801 11.6769 1.60093 11.4033 1.43971C10.2597 0.765754 8.94363 0.408954 7.59478 0.408954C6.6235 0.408954 5.68232 0.588675 4.79312 0.945475C3.93401 1.28906 3.15972 1.78329 2.49487 2.41232C1.83275 3.03638 1.30383 3.77988 0.938086 4.60069C0.557782 5.45436 0.363525 6.3609 0.363525 7.29386C0.363525 8.17397 0.549574 9.09108 0.918934 10.024C1.2281 10.8037 1.67134 11.6125 2.23769 12.4291C3.1351 13.7215 4.36903 15.0695 5.9012 16.4359C8.44021 18.7009 10.9546 20.2655 11.0613 20.3289L11.7097 20.7307C11.997 20.9078 12.3664 20.9078 12.6537 20.7307L13.3021 20.3289C13.4088 20.2629 15.9204 18.7009 18.4622 16.4359C19.9944 15.0695 21.2283 13.7215 22.1257 12.4291C22.6921 11.6125 23.138 10.8037 23.4445 10.024C23.8138 9.09108 23.9999 8.17397 23.9999 7.29386C24.0026 6.3609 23.8083 5.45436 23.428 4.60069ZM12.1831 18.6401C12.1831 18.6401 2.44289 12.6115 2.44289 7.29386C2.44289 4.60069 4.74934 2.4176 7.59478 2.4176C9.5948 2.4176 11.3294 3.49593 12.1831 5.07114C13.0367 3.49593 14.7713 2.4176 16.7713 2.4176C19.6168 2.4176 21.9232 4.60069 21.9232 7.29386C21.9232 12.6115 12.1831 18.6401 12.1831 18.6401Z" fill="#313131" fill-opacity="0.8"/>
</svg>
