<svg width="15" height="22" viewBox="0 0 15 22" fill="none" xmlns="http://www.w3.org/2000/svg">
<path d="M7.97927 5.29175C8.66993 5.29175 9.33231 5.56611 9.82069 6.05449C10.3091 6.54286 10.5834 7.20524 10.5834 7.89591C10.5834 8.58658 10.3091 9.24896 9.82069 9.73734C9.33231 10.2257 8.66993 10.5001 7.97927 10.5001C7.2886 10.5001 6.62622 10.2257 6.13784 9.73734C5.64947 9.24896 5.3751 8.58658 5.3751 7.89591C5.3751 7.20524 5.64947 6.54286 6.13784 6.05449C6.62622 5.56611 7.2886 5.29175 7.97927 5.29175ZM7.97927 6.33341C7.56486 6.33341 7.16744 6.49803 6.87441 6.79106C6.58139 7.08408 6.41677 7.48151 6.41677 7.89591C6.41677 8.31031 6.58139 8.70774 6.87441 9.00077C7.16744 9.29379 7.56486 9.45841 7.97927 9.45841C8.39367 9.45841 8.79109 9.29379 9.08412 9.00077C9.37715 8.70774 9.54177 8.31031 9.54177 7.89591C9.54177 7.48151 9.37715 7.08408 9.08412 6.79106C8.79109 6.49803 8.39367 6.33341 7.97927 6.33341ZM3.08343 10.872L7.97927 18.924L12.8751 10.872C13.4031 10.0032 13.6904 9.00961 13.7076 7.99313C13.7248 6.97666 13.4712 5.97392 12.9728 5.08783C12.4745 4.20174 11.7493 3.46422 10.8717 2.95096C9.9942 2.4377 8.99589 2.16719 7.97927 2.16719C6.96265 2.16719 5.96433 2.4377 5.08679 2.95096C4.20925 3.46422 3.48408 4.20174 2.98572 5.08783C2.48735 5.97392 2.23374 6.97666 2.25092 7.99313C2.26809 9.00961 2.55542 10.0032 3.08343 10.872ZM13.7647 11.4136L7.97927 20.9292L2.19385 11.4136C1.57002 10.3869 1.2306 9.21268 1.21043 8.01147C1.19026 6.81026 1.49006 5.62531 2.07906 4.57822C2.66807 3.53113 3.52507 2.65962 4.56212 2.05311C5.59917 1.44661 6.77892 1.12695 7.98031 1.12695C9.18169 1.12695 10.3614 1.44661 11.3985 2.05311C12.4355 2.65962 13.2925 3.53113 13.8815 4.57822C14.4706 5.62531 14.7704 6.81026 14.7502 8.01147C14.73 9.21268 14.3906 10.3869 13.7668 11.4136H13.7647Z" fill="#313131" stroke="#313131" stroke-width="0.5"/>
</svg>
