<svg width="20" height="18" viewBox="0 0 20 18" fill="none" xmlns="http://www.w3.org/2000/svg">
<path d="M9.87539 4.59361C7.1321 4.59361 4.91814 6.56157 4.91814 9.00005C4.91814 11.4385 7.1321 13.4065 9.87539 13.4065C12.6187 13.4065 14.8326 11.4385 14.8326 9.00005C14.8326 6.56157 12.6187 4.59361 9.87539 4.59361ZM9.87539 11.8639C8.10132 11.8639 6.65354 10.577 6.65354 9.00005C6.65354 7.4231 8.10132 6.13618 9.87539 6.13618C11.6495 6.13618 13.0972 7.4231 13.0972 9.00005C13.0972 10.577 11.6495 11.8639 9.87539 11.8639ZM15.0357 3.38618C14.3952 3.38618 13.8779 3.84595 13.8779 4.41529C13.8779 4.98462 14.3952 5.44439 15.0357 5.44439C15.6762 5.44439 16.1934 4.98677 16.1934 4.41529C16.1936 4.2801 16.1638 4.1462 16.1057 4.02127C16.0476 3.89633 15.9623 3.78282 15.8547 3.68722C15.7472 3.59163 15.6195 3.51583 15.4789 3.46418C15.3384 3.41252 15.1878 3.38602 15.0357 3.38618ZM19.5385 9.00005C19.5385 7.81411 19.5506 6.63892 19.4757 5.45513C19.4008 4.08013 19.0479 2.85982 17.9167 1.85435C16.7832 0.846732 15.4127 0.535209 13.8658 0.468608C12.5317 0.402006 11.2096 0.412748 9.8778 0.412748C8.54362 0.412748 7.22153 0.402006 5.88977 0.468608C4.34289 0.535209 2.97004 0.848881 1.83889 1.85435C0.705321 2.86197 0.354857 4.08013 0.27993 5.45513C0.205004 6.64107 0.217089 7.81626 0.217089 9.00005C0.217089 10.1838 0.205004 11.3612 0.27993 12.545C0.354857 13.92 0.707738 15.1403 1.83889 16.1458C2.97246 17.1534 4.34289 17.4649 5.88977 17.5315C7.22395 17.5981 8.54604 17.5874 9.8778 17.5874C11.212 17.5874 12.5341 17.5981 13.8658 17.5315C15.4127 17.4649 16.7856 17.1512 17.9167 16.1458C19.0503 15.1381 19.4008 13.92 19.4757 12.545C19.553 11.3612 19.5385 10.186 19.5385 9.00005ZM17.4116 14.0661C17.2351 14.4571 17.0224 14.7493 16.6816 15.05C16.3408 15.353 16.0145 15.542 15.5747 15.6989C14.3033 16.1479 11.2845 16.0469 9.87539 16.0469C8.46628 16.0469 5.44504 16.1479 4.1737 15.701C3.73381 15.5442 3.4051 15.3551 3.06672 15.0522C2.72593 14.7493 2.51323 14.4592 2.33679 14.0682C1.83406 12.936 1.94765 10.2526 1.94765 9.00005C1.94765 7.74751 1.83406 5.06197 2.33679 3.93189C2.51323 3.54087 2.72593 3.24869 3.06672 2.9479C3.40752 2.64712 3.73381 2.45591 4.1737 2.29908C5.44504 1.8522 8.46628 1.95318 9.87539 1.95318C11.2845 1.95318 14.3057 1.8522 15.5771 2.29908C16.017 2.45591 16.3457 2.64497 16.6841 2.9479C17.0249 3.25083 17.2375 3.54087 17.414 3.93189C17.9167 5.06197 17.8031 7.74751 17.8031 9.00005C17.8031 10.2526 17.9167 12.936 17.4116 14.0661Z" fill="white"/>
</svg>
