<svg width="18" height="18" viewBox="0 0 18 18" fill="none" xmlns="http://www.w3.org/2000/svg">
<path d="M9.00013 4.59361C6.56165 4.59361 4.59369 6.56157 4.59369 9.00005C4.59369 11.4385 6.56165 13.4065 9.00013 13.4065C11.4386 13.4065 13.4066 11.4385 13.4066 9.00005C13.4066 6.56157 11.4386 4.59361 9.00013 4.59361ZM9.00013 11.8639C7.42318 11.8639 6.13626 10.577 6.13626 9.00005C6.13626 7.4231 7.42318 6.13618 9.00013 6.13618C10.5771 6.13618 11.864 7.4231 11.864 9.00005C11.864 10.577 10.5771 11.8639 9.00013 11.8639ZM13.587 3.38618C13.0177 3.38618 12.5579 3.84595 12.5579 4.41529C12.5579 4.98462 13.0177 5.44439 13.587 5.44439C14.1564 5.44439 14.6161 4.98677 14.6161 4.41529C14.6163 4.2801 14.5898 4.1462 14.5382 4.02127C14.4865 3.89633 14.4107 3.78282 14.3151 3.68722C14.2195 3.59163 14.106 3.51583 13.9811 3.46418C13.8561 3.41252 13.7222 3.38602 13.587 3.38618ZM17.5896 9.00005C17.5896 7.81411 17.6003 6.63892 17.5337 5.45513C17.4671 4.08013 17.1535 2.85982 16.148 1.85435C15.1404 0.846732 13.9222 0.535209 12.5472 0.468608C11.3613 0.402006 10.1861 0.412748 9.00228 0.412748C7.81634 0.412748 6.64115 0.402006 5.45736 0.468608C4.08236 0.535209 2.86205 0.848881 1.85658 1.85435C0.84896 2.86197 0.537437 4.08013 0.470836 5.45513C0.404234 6.64107 0.414976 7.81626 0.414976 9.00005C0.414976 10.1838 0.404234 11.3612 0.470836 12.545C0.537437 13.92 0.851109 15.1403 1.85658 16.1458C2.86419 17.1534 4.08236 17.4649 5.45736 17.5315C6.6433 17.5981 7.81849 17.5874 9.00228 17.5874C10.1882 17.5874 11.3634 17.5981 12.5472 17.5315C13.9222 17.4649 15.1425 17.1512 16.148 16.1458C17.1556 15.1381 17.4671 13.92 17.5337 12.545C17.6025 11.3612 17.5896 10.186 17.5896 9.00005ZM15.699 14.0661C15.5421 14.4571 15.3531 14.7493 15.0501 15.05C14.7472 15.353 14.4572 15.542 14.0661 15.6989C12.9361 16.1479 10.2527 16.0469 9.00013 16.0469C7.74759 16.0469 5.06205 16.1479 3.93197 15.701C3.54095 15.5442 3.24876 15.3551 2.94798 15.0522C2.64505 14.7493 2.45599 14.4592 2.29916 14.0682C1.85228 12.936 1.95326 10.2526 1.95326 9.00005C1.95326 7.74751 1.85228 5.06197 2.29916 3.93189C2.45599 3.54087 2.64505 3.24869 2.94798 2.9479C3.25091 2.64712 3.54095 2.45591 3.93197 2.29908C5.06205 1.8522 7.74759 1.95318 9.00013 1.95318C10.2527 1.95318 12.9382 1.8522 14.0683 2.29908C14.4593 2.45591 14.7515 2.64497 15.0523 2.9479C15.3552 3.25083 15.5443 3.54087 15.7011 3.93189C16.148 5.06197 16.047 7.74751 16.047 9.00005C16.047 10.2526 16.148 12.936 15.699 14.0661Z" fill="#313131" fill-opacity="0.8"/>
</svg>
