<?xml version="1.0" encoding="utf-8"?>
<!-- Generator: Adobe Illustrator 23.0.2, SVG Export Plug-In . SVG Version: 6.00 Build 0)  -->
<svg version="1.1" id="Слой_1" xmlns="http://www.w3.org/2000/svg" xmlns:xlink="http://www.w3.org/1999/xlink" x="0px" y="0px"
	 viewBox="0 0 16 16" style="enable-background:new 0 0 16 16;" xml:space="preserve">
<style type="text/css">
	.st0{fill:#FD585E;}
	.st1{fill:#FFFFFF;}
</style>
<path class="st0" d="M15.6,3.3c-0.2-0.6-0.6-1.2-1.1-1.7c-0.4-0.5-1-0.9-1.6-1.1C12.4,0.1,11.8,0,11.1,0c-0.9,0-1.8,0.3-2.6,0.8
	C8.3,0.9,8.2,1.1,8,1.2C7.8,1.1,7.7,0.9,7.5,0.8C6.7,0.3,5.8,0,4.9,0C4.2,0,3.6,0.1,3,0.4C2.4,0.7,1.9,1.1,1.4,1.6
	C1,2.1,0.6,2.6,0.4,3.3C0.1,3.9,0,4.7,0,5.4c0,0.7,0.1,1.4,0.4,2.1c0.2,0.6,0.5,1.2,0.9,1.9c0.6,1,1.4,2.1,2.5,3.1
	c1.7,1.8,3.4,3,3.5,3l0.4,0.3c0.2,0.1,0.4,0.1,0.6,0l0.4-0.3c0.1-0.1,1.8-1.3,3.5-3c1-1.1,1.9-2.1,2.5-3.1c0.4-0.6,0.7-1.3,0.9-1.9
	C15.9,6.8,16,6.1,16,5.4C16,4.7,15.9,3.9,15.6,3.3z"/>
<path class="st1" d="M8,14.3c0,0-6.6-4.7-6.6-8.9c0-2.1,1.6-3.8,3.5-3.8c1.4,0,2.5,0.8,3.1,2.1c0.6-1.2,1.8-2.1,3.1-2.1
	c1.9,0,3.5,1.7,3.5,3.8C14.6,9.5,8,14.3,8,14.3z"/>
</svg>
