<svg width="32" height="29" viewBox="0 0 32 29" fill="none" xmlns="http://www.w3.org/2000/svg">
<g clip-path="url(#clip0)">
<path d="M1.48899 5.65481C0.666912 5.65481 0 6.25888 0 7.00421V22.5174C0 23.2626 0.667008 23.8668 1.48899 23.8668H30.511C31.3331 23.8668 32 23.2627 32 22.5174V7.00418C32 6.25897 31.333 5.65479 30.511 5.65479H1.48896L1.48899 5.65481ZM10.493 7.84704C12.3196 7.84704 13.9972 8.42295 15.314 9.38494C14.2061 10.2833 13.3797 11.4637 12.972 12.8015H13.611C13.9873 11.6978 14.6709 10.7152 15.572 9.93594C16.4731 10.7152 17.1566 11.6978 17.533 12.8015H18.182C17.7686 11.4707 16.9411 10.2974 15.834 9.40489C17.1534 8.43069 18.8375 7.84701 20.672 7.84701C24.9053 7.84701 28.337 10.9573 28.337 14.7943C28.337 18.6314 24.9053 21.7417 20.672 21.7417C18.807 21.7417 17.097 21.1384 15.768 20.1349C16.9568 19.1976 17.8332 17.9411 18.234 16.5117H17.609C17.2531 17.7114 16.5368 18.7785 15.572 19.6129C14.6072 18.7785 13.8919 17.7114 13.536 16.5117H12.941C13.3441 17.9204 14.2091 19.1593 15.38 20.0878C14.0534 21.0789 12.3501 21.6746 10.493 21.6746C6.25968 21.6746 2.828 18.5792 2.828 14.7608C2.828 10.9424 6.25968 7.84704 10.493 7.84704ZM20.097 12.7308C19.176 12.7308 18.28 13.4605 18.28 14.8306C18.28 15.7391 18.764 16.3386 19.716 16.3386C19.9852 16.3387 20.414 16.2389 20.414 16.2389L20.556 15.445C20.556 15.445 20.1646 15.6245 19.896 15.6245C19.3301 15.6245 19.103 15.23 19.103 14.8061C19.103 13.9462 19.5899 13.473 20.132 13.473C20.5385 13.473 20.865 13.6815 20.865 13.6815L20.995 12.9093C20.995 12.9093 20.5117 12.7308 20.097 12.7308H20.097ZM27.84 12.7979L27.039 12.7997L26.867 13.7549C26.867 13.7549 26.5659 13.3842 26.095 13.3842C25.3628 13.3842 24.753 14.1724 24.753 15.0789C24.753 15.664 25.0776 16.238 25.743 16.238C26.2217 16.238 26.487 15.9399 26.487 15.9399L26.452 16.1945H27.23L27.84 12.7979ZM4.89798 12.8078L4.26 16.2126H5.02899L5.51501 13.6452L5.58701 16.2126H6.13699L7.16301 13.6452L6.708 16.2126H7.52499L8.15501 12.8078H6.89101L6.104 14.8967L6.06301 12.8079H4.89802L4.89798 12.8078ZM12.932 13.029C12.9146 13.0448 12.467 15.384 12.467 15.6689C12.467 16.0907 12.7279 16.2791 13.095 16.2761C13.358 16.274 13.5618 16.2141 13.656 16.1891C13.6659 16.1867 13.685 16.1818 13.685 16.1818L13.784 15.5728C13.7302 15.5728 13.6509 15.5937 13.581 15.5937C13.3069 15.5937 13.2765 15.4615 13.294 15.3635L13.515 14.121H13.932L14.033 13.4476H13.64L13.72 13.029H12.932ZM22.227 13.3715C21.6903 13.3715 21.279 13.5319 21.279 13.5319L21.165 14.1573C21.165 14.1573 21.5047 14.0295 22.018 14.0295C22.3095 14.0295 22.523 14.0597 22.523 14.2796C22.523 14.4132 22.497 14.4627 22.497 14.4627C22.497 14.4627 22.2665 14.4445 22.16 14.4445C21.4831 14.4445 20.772 14.7134 20.772 15.5221C20.772 16.1593 21.2388 16.3051 21.528 16.3051C22.0803 16.3051 22.3184 15.9726 22.331 15.9716L22.305 16.2489H22.994L23.302 14.2479C23.3021 13.3988 22.5041 13.3715 22.227 13.3715V13.3715ZM9.30198 13.3752C8.7633 13.3752 8.34998 13.5356 8.34998 13.5356L8.236 14.1609C8.236 14.1609 8.5768 14.0331 9.092 14.0331C9.38454 14.0331 9.59901 14.0634 9.59901 14.2832C9.59901 14.4167 9.57299 14.4663 9.57299 14.4663C9.57299 14.4663 9.34186 14.4482 9.23501 14.4482C8.55555 14.4482 7.84202 14.7166 7.84202 15.5248C7.84202 16.1616 8.30979 16.3078 8.6 16.3078C9.15427 16.3078 9.39328 15.9753 9.40602 15.9743L9.38 16.2516H10.072L10.381 14.2515C10.381 13.4029 9.58013 13.3751 9.30198 13.3751V13.3752ZM11.746 13.3752C11.1675 13.3752 10.58 13.5868 10.58 14.3095C10.58 15.1284 11.559 15.0457 11.559 15.3906C11.559 15.6209 11.2858 15.6399 11.075 15.6399C10.7102 15.6399 10.3822 15.5257 10.381 15.5311L10.276 16.1564C10.2949 16.1617 10.498 16.2443 11.154 16.2443C11.3301 16.2443 12.337 16.2849 12.337 15.3345C12.337 14.4459 11.405 14.622 11.405 14.2651C11.405 14.0874 11.5563 14.0313 11.834 14.0313C11.9443 14.0313 12.369 14.063 12.369 14.063L12.467 13.4313C12.467 13.4314 12.1929 13.3752 11.746 13.3752H11.746ZM15.362 13.3752C14.5581 13.3753 13.963 14.1587 13.963 15.0436C13.963 16.0649 14.7087 16.3078 15.344 16.3078C15.9304 16.3078 16.189 16.1891 16.189 16.1891L16.329 15.4922C16.329 15.4922 15.8829 15.6698 15.48 15.6698C14.6216 15.6698 14.772 15.0907 14.772 15.0907H16.397C16.397 15.0907 16.502 14.6227 16.502 14.4318C16.502 13.9557 16.2398 13.3752 15.362 13.3752H15.362ZM18.273 13.4051C17.9109 13.4051 17.642 13.8464 17.642 13.8464L17.714 13.4413H16.962L16.457 16.238H17.288C17.5234 15.0437 17.5663 14.074 18.128 14.2515C18.2263 13.7893 18.3217 13.6107 18.429 13.415C18.429 13.415 18.3786 13.4051 18.273 13.4051H18.273ZM25.006 13.4051C24.6439 13.4051 24.375 13.8464 24.375 13.8464L24.447 13.4413H23.695L23.19 16.238H24.02C24.2555 15.0437 24.2995 14.074 24.861 14.2515C24.9595 13.7893 25.0548 13.6107 25.162 13.415C25.162 13.415 25.1116 13.4051 25.006 13.4051H25.006ZM15.358 14.0059C15.8145 14.0059 15.731 14.4729 15.731 14.5107H14.832C14.832 14.4625 14.9171 14.0059 15.358 14.0059H15.358ZM26.221 14.0603C26.5116 14.0602 26.661 14.2381 26.661 14.6566C26.661 15.0363 26.4497 15.5438 26.012 15.5438C25.7215 15.5438 25.585 15.3264 25.585 14.9856C25.585 14.4282 25.8663 14.0603 26.221 14.0603H26.221ZM22.228 15.0118C22.3465 15.012 22.371 15.0224 22.391 15.0273C22.3881 15.0268 22.3876 15.0273 22.399 15.0291C22.414 15.1536 22.316 15.7378 21.842 15.7378C21.5976 15.7378 21.535 15.5616 21.535 15.4577C21.535 15.2551 21.6514 15.0118 22.228 15.0118ZM9.30301 15.0146C9.43763 15.0147 9.45232 15.0283 9.47501 15.0318C9.49005 15.1563 9.39161 15.7396 8.916 15.7396C8.67066 15.7396 8.60701 15.5643 8.60701 15.4604C8.60701 15.2579 8.72413 15.0146 9.30301 15.0146Z" fill="#C4C4C4"/>
</g>
<defs>
<clipPath id="clip0">
<rect width="32" height="29" fill="white"/>
</clipPath>
</defs>
</svg>
