<svg width="32" height="19" viewBox="0 0 32 19" fill="none" xmlns="http://www.w3.org/2000/svg">
<path d="M1.48899 0.655059C0.666912 0.655059 0 1.25913 0 2.00446V17.5177C0 18.2629 0.667008 18.8671 1.48899 18.8671H30.511C31.3331 18.8671 32 18.263 32 17.5177V2.00443C32 1.25922 31.333 0.655029 30.511 0.655029H1.48896L1.48899 0.655059ZM10.493 2.84728C12.3196 2.84728 13.9972 3.4232 15.314 4.38518C14.2061 5.28357 13.3797 6.4639 12.972 7.80176H13.611C13.9873 6.69808 14.6709 5.71544 15.572 4.93618C16.4731 5.71544 17.1566 6.69808 17.533 7.80176H18.182C17.7686 6.47095 16.9411 5.29767 15.834 4.40513C17.1534 3.43094 18.8375 2.84725 20.672 2.84725C24.9053 2.84725 28.337 5.95756 28.337 9.79458C28.337 13.6316 24.9053 16.7419 20.672 16.7419C18.807 16.7419 17.097 16.1386 15.768 15.1351C16.9568 14.1978 17.8332 12.9413 18.234 11.5119H17.609C17.2531 12.7117 16.5368 13.7787 15.572 14.6131C14.6072 13.7787 13.8919 12.7117 13.536 11.5119H12.941C13.3441 12.9206 14.2091 14.1595 15.38 15.088C14.0534 16.0791 12.3501 16.6748 10.493 16.6748C6.25968 16.6748 2.828 13.5795 2.828 9.76106C2.828 5.94263 6.25968 2.84728 10.493 2.84728ZM20.097 7.73106C19.176 7.73106 18.28 8.46076 18.28 9.83083C18.28 10.7393 18.764 11.3388 19.716 11.3388C19.9852 11.3389 20.414 11.2392 20.414 11.2392L20.556 10.4453C20.556 10.4453 20.1646 10.6247 19.896 10.6247C19.3301 10.6247 19.103 10.2303 19.103 9.80638C19.103 8.94645 19.5899 8.47325 20.132 8.47325C20.5385 8.47325 20.865 8.68171 20.865 8.68171L20.995 7.90958C20.995 7.90958 20.5117 7.73106 20.097 7.73106H20.097ZM27.84 7.79813L27.039 7.79993L26.867 8.75513C26.867 8.75513 26.5659 8.38446 26.095 8.38446C25.3628 8.38446 24.753 9.17268 24.753 10.0792C24.753 10.6643 25.0776 11.2382 25.743 11.2382C26.2217 11.2382 26.487 10.9401 26.487 10.9401L26.452 11.1947H27.23L27.84 7.79813ZM4.89798 7.80808L4.26 11.2129H5.02899L5.51501 8.64549L5.58701 11.2129H6.13699L7.16301 8.64549L6.708 11.2129H7.52499L8.15501 7.80808H6.89101L6.104 9.89698L6.06301 7.80811H4.89802L4.89798 7.80808ZM12.932 8.02921C12.9146 8.04501 12.467 10.3842 12.467 10.6691C12.467 11.0909 12.7279 11.2794 13.095 11.2763C13.358 11.2743 13.5618 11.2144 13.656 11.1893C13.6659 11.1869 13.685 11.1821 13.685 11.1821L13.784 10.5731C13.7302 10.5731 13.6509 10.5939 13.581 10.5939C13.3069 10.5939 13.2765 10.4618 13.294 10.3637L13.515 9.12126H13.932L14.033 8.44788H13.64L13.72 8.02921H12.932ZM22.227 8.37178C21.6903 8.37178 21.279 8.53218 21.279 8.53218L21.165 9.15751C21.165 9.15751 21.5047 9.02971 22.018 9.02971C22.3095 9.02971 22.523 9.05993 22.523 9.27983C22.523 9.41341 22.497 9.46291 22.497 9.46291C22.497 9.46291 22.2665 9.44478 22.16 9.44478C21.4831 9.44478 20.772 9.71361 20.772 10.5223C20.772 11.1595 21.2388 11.3053 21.528 11.3053C22.0803 11.3053 22.3184 10.9728 22.331 10.9718L22.305 11.2491H22.994L23.302 9.24813C23.3021 8.39907 22.5041 8.37175 22.227 8.37175V8.37178ZM9.30198 8.37541C8.7633 8.37541 8.34998 8.53581 8.34998 8.53581L8.236 9.16113C8.236 9.16113 8.5768 9.03333 9.092 9.03333C9.38454 9.03333 9.59901 9.06367 9.59901 9.28346C9.59901 9.41697 9.57299 9.46653 9.57299 9.46653C9.57299 9.46653 9.34186 9.44841 9.23501 9.44841C8.55555 9.44841 7.84202 9.7168 7.84202 10.525C7.84202 11.1619 8.30979 11.308 8.6 11.308C9.15427 11.308 9.39328 10.9755 9.40602 10.9745L9.38 11.2518H10.072L10.381 9.25176C10.381 8.40319 9.58013 8.37538 9.30198 8.37538V8.37541ZM11.746 8.37541C11.1675 8.37541 10.58 8.58702 10.58 9.30976C10.58 10.1287 11.559 10.0459 11.559 10.3909C11.559 10.6211 11.2858 10.6401 11.075 10.6401C10.7102 10.6401 10.3822 10.5259 10.381 10.5314L10.276 11.1567C10.2949 11.162 10.498 11.2446 11.154 11.2446C11.3301 11.2446 12.337 11.2851 12.337 10.3347C12.337 9.44618 11.405 9.62229 11.405 9.26533C11.405 9.08762 11.5563 9.03153 11.834 9.03153C11.9443 9.03153 12.369 9.06326 12.369 9.06326L12.467 8.43158C12.467 8.43167 12.1929 8.37541 11.746 8.37541H11.746ZM15.362 8.37541C14.5581 8.37555 13.963 9.1589 13.963 10.0438C13.963 11.0652 14.7087 11.308 15.344 11.308C15.9304 11.308 16.189 11.1893 16.189 11.1893L16.329 10.4924C16.329 10.4924 15.8829 10.67 15.48 10.67C14.6216 10.67 14.772 10.0909 14.772 10.0909H16.397C16.397 10.0909 16.502 9.62293 16.502 9.43208C16.502 8.9559 16.2398 8.37541 15.362 8.37541H15.362ZM18.273 8.40531C17.9109 8.40531 17.642 8.84666 17.642 8.84666L17.714 8.44156H16.962L16.457 11.2383H17.288C17.5234 10.044 17.5663 9.07425 18.128 9.25176C18.2263 8.7895 18.3217 8.61092 18.429 8.41528C18.429 8.41528 18.3786 8.40531 18.273 8.40531H18.273ZM25.006 8.40531C24.6439 8.40531 24.375 8.84666 24.375 8.84666L24.447 8.44156H23.695L23.19 11.2383H24.02C24.2555 10.044 24.2995 9.07425 24.861 9.25176C24.9595 8.7895 25.0548 8.61092 25.162 8.41528C25.162 8.41528 25.1116 8.40531 25.006 8.40531H25.006ZM15.358 9.00616C15.8145 9.00616 15.731 9.47318 15.731 9.51093H14.832C14.832 9.46273 14.9171 9.00616 15.358 9.00616H15.358ZM26.221 9.06053C26.5116 9.06045 26.661 9.23833 26.661 9.65683C26.661 10.0366 26.4497 10.5441 26.012 10.5441C25.7215 10.5441 25.585 10.3266 25.585 9.98581C25.585 9.42849 25.8663 9.06053 26.221 9.06053H26.221ZM22.228 10.0121C22.3465 10.0122 22.371 10.0227 22.391 10.0275C22.3881 10.0271 22.3876 10.0276 22.399 10.0293C22.414 10.1539 22.316 10.738 21.842 10.738C21.5976 10.738 21.535 10.5619 21.535 10.458C21.535 10.2553 21.6514 10.0121 22.228 10.0121ZM9.30301 10.0148C9.43763 10.015 9.45232 10.0286 9.47501 10.032C9.49005 10.1565 9.39161 10.7398 8.916 10.7398C8.67066 10.7398 8.60701 10.5645 8.60701 10.4607C8.60701 10.2581 8.72413 10.0148 9.30301 10.0148Z" fill="white" fill-opacity="0.7"/>
</svg>
