<svg width="26" height="26" viewBox="0 0 26 26" fill="none" xmlns="http://www.w3.org/2000/svg">
<path d="M25.924 24.1703L17.6608 15.9072C18.9431 14.2494 19.6367 12.2226 19.6367 10.0908C19.6367 7.53902 18.6408 5.1463 16.8399 3.34222C15.039 1.53813 12.6399 0.54541 10.0913 0.54541C7.54269 0.54541 5.14361 1.54131 3.3427 3.34222C1.53862 5.14312 0.545898 7.53902 0.545898 10.0908C0.545898 12.6394 1.5418 15.0385 3.3427 16.8394C5.14361 18.6435 7.5395 19.6362 10.0913 19.6362C12.2231 19.6362 14.2467 18.9426 15.9045 17.6635L24.1676 25.9235C24.1918 25.9477 24.2206 25.967 24.2523 25.9801C24.2839 25.9932 24.3179 26 24.3522 26C24.3864 26 24.4204 25.9932 24.452 25.9801C24.4837 25.967 24.5125 25.9477 24.5367 25.9235L25.924 24.5394C25.9482 24.5152 25.9674 24.4864 25.9806 24.4547C25.9937 24.4231 26.0004 24.3891 26.0004 24.3549C26.0004 24.3206 25.9937 24.2866 25.9806 24.255C25.9674 24.2233 25.9482 24.1945 25.924 24.1703ZM15.1313 15.1308C13.7822 16.4767 11.994 17.2181 10.0913 17.2181C8.18859 17.2181 6.40042 16.4767 5.05133 15.1308C3.70543 13.7817 2.96407 11.9935 2.96407 10.0908C2.96407 8.1881 3.70543 6.39675 5.05133 5.05085C6.40042 3.70494 8.18859 2.96358 10.0913 2.96358C11.994 2.96358 13.7854 3.70176 15.1313 5.05085C16.4772 6.39993 17.2186 8.1881 17.2186 10.0908C17.2186 11.9935 16.4772 13.7849 15.1313 15.1308Z" fill="#FD585E"/>
</svg>
