<svg width="16" height="16" viewBox="0 0 16 16" fill="none" xmlns="http://www.w3.org/2000/svg">
<path d="M15.9535 14.8891L10.9366 9.87219C11.7151 8.86571 12.1363 7.63515 12.1363 6.34084C12.1363 4.79153 11.5316 3.33881 10.4382 2.24347C9.3448 1.14813 7.88822 0.54541 6.34084 0.54541C4.79346 0.54541 3.33687 1.15007 2.24347 2.24347C1.14813 3.33687 0.54541 4.79153 0.54541 6.34084C0.54541 7.88822 1.15007 9.3448 2.24347 10.4382C3.33687 11.5335 4.79153 12.1363 6.34084 12.1363C7.63515 12.1363 8.86378 11.7151 9.87026 10.9385L14.8872 15.9535C14.9019 15.9682 14.9193 15.9799 14.9386 15.9879C14.9578 15.9959 14.9784 16 14.9992 16C15.02 16 15.0406 15.9959 15.0599 15.9879C15.0791 15.9799 15.0965 15.9682 15.1113 15.9535L15.9535 15.1132C15.9682 15.0985 15.9799 15.081 15.9879 15.0618C15.9959 15.0426 16 15.022 16 15.0011C16 14.9803 15.9959 14.9597 15.9879 14.9405C15.9799 14.9213 15.9682 14.9038 15.9535 14.8891ZM9.40083 9.40083C8.58174 10.218 7.49606 10.6681 6.34084 10.6681C5.18562 10.6681 4.09994 10.218 3.28085 9.40083C2.4637 8.58174 2.01359 7.49606 2.01359 6.34084C2.01359 5.18562 2.4637 4.09801 3.28085 3.28085C4.09994 2.4637 5.18562 2.01359 6.34084 2.01359C7.49606 2.01359 8.58367 2.46177 9.40083 3.28085C10.218 4.09994 10.6681 5.18562 10.6681 6.34084C10.6681 7.49606 10.218 8.58367 9.40083 9.40083Z" fill="#313131" fill-opacity="0.8"/>
</svg>
