<svg width="5" height="4" viewBox="0 0 5 4" fill="none" xmlns="http://www.w3.org/2000/svg">
<path fill-rule="evenodd" clip-rule="evenodd" d="M3.79844 0.863977C3.85966 0.811954 3.94232 0.782676 4.02853 0.782472C4.11474 0.782268 4.19759 0.811155 4.25915 0.862888C4.32071 0.91462 4.35604 0.985042 4.35751 1.05893C4.35898 1.13281 4.32647 1.20423 4.267 1.25773L2.5205 3.12898C2.49048 3.15669 2.45426 3.17893 2.41398 3.19436C2.37371 3.2098 2.33022 3.21812 2.28611 3.21882C2.242 3.21952 2.19818 3.21259 2.15727 3.19844C2.11636 3.18429 2.07919 3.16322 2.048 3.13648L0.890812 2.14423C0.858574 2.11848 0.832717 2.08743 0.814783 2.05293C0.796849 2.01843 0.787205 1.98119 0.786428 1.94342C0.785651 1.90566 0.793755 1.86815 0.810258 1.83313C0.826761 1.79811 0.851324 1.76629 0.882483 1.73959C0.913641 1.71288 0.950756 1.69183 0.991613 1.67768C1.03247 1.66354 1.07623 1.65659 1.12029 1.65726C1.16435 1.65792 1.2078 1.66619 1.24805 1.68156C1.2883 1.69693 1.32452 1.71909 1.35456 1.74673L2.27069 2.5316L3.79012 0.872227C3.79284 0.869322 3.79576 0.866567 3.79887 0.863977H3.79844Z" fill="white"/>
</svg>
