<svg width="22" height="22" viewBox="0 0 22 22" fill="none" xmlns="http://www.w3.org/2000/svg">
<path d="M13.2021 2.05551C13.2456 1.89343 13.3515 1.75521 13.4968 1.67121C13.6421 1.58721 13.8147 1.56429 13.9769 1.60748C15.5146 2.021 16.9168 2.83135 18.0427 3.95736C19.1687 5.08336 19.9791 6.48548 20.3925 8.02325C20.4145 8.1037 20.4204 8.18772 20.4098 8.27045C20.3992 8.35318 20.3724 8.43301 20.3309 8.50533C20.2893 8.57766 20.2339 8.64105 20.1678 8.69188C20.1016 8.74271 20.0261 8.77996 19.9455 8.80149C19.8649 8.82302 19.7809 8.82841 19.6982 8.81735C19.6155 8.80629 19.5359 8.779 19.4638 8.73704C19.3917 8.69508 19.3286 8.63928 19.2782 8.57286C19.2277 8.50644 19.1909 8.4307 19.1698 8.34999C18.8141 7.02699 18.1169 5.8207 17.1482 4.85196C16.1794 3.88323 14.9731 3.18605 13.6501 2.83029C13.5698 2.80884 13.4946 2.77178 13.4286 2.72123C13.3626 2.67069 13.3073 2.60764 13.2656 2.5357C13.224 2.46375 13.197 2.38432 13.1861 2.30192C13.1752 2.21953 13.1806 2.1358 13.2021 2.05551ZM12.7764 6.09106C13.5273 6.29293 14.2119 6.68859 14.7617 7.23839C15.3115 7.78819 15.7072 8.47282 15.9091 9.22369C15.9524 9.38585 16.0584 9.52415 16.2037 9.60817C16.349 9.69219 16.5217 9.71506 16.6838 9.67173C16.846 9.6284 16.9843 9.52243 17.0683 9.37713C17.1523 9.23183 17.1752 9.05911 17.1319 8.89695C16.8722 7.93132 16.3634 7.05087 15.6563 6.34381C14.9493 5.63674 14.0688 5.1279 13.1032 4.86826C13.0229 4.8468 12.9392 4.84137 12.8568 4.85228C12.7744 4.86318 12.6949 4.89021 12.623 4.93181C12.4777 5.01584 12.3717 5.15413 12.3284 5.31629C12.2851 5.47844 12.3079 5.65117 12.392 5.79647C12.476 5.94176 12.6143 6.04773 12.7764 6.09106ZM21.2127 16.4391C21.0359 17.8132 20.365 19.076 19.3252 19.9915C18.2854 20.9071 16.9479 21.4128 15.5625 21.4142C7.3044 21.4142 0.585938 14.6957 0.585938 6.43763C0.587348 5.05224 1.09305 3.71473 2.00857 2.67495C2.92409 1.63517 4.18682 0.964232 5.5609 0.787461C5.87812 0.749277 6.19917 0.814808 6.47605 0.974255C6.75293 1.1337 6.97075 1.3785 7.09695 1.67203L9.21592 6.61619C9.31213 6.83995 9.35137 7.08407 9.33012 7.32671C9.30888 7.56935 9.22783 7.80294 9.09421 8.00659L7.33963 10.6875C7.31979 10.7163 7.30775 10.7498 7.30466 10.7847C7.30158 10.8196 7.30755 10.8546 7.32202 10.8865C8.13617 12.5474 9.48282 13.888 11.1474 14.6946C11.1794 14.7089 11.2147 14.7147 11.2496 14.7113C11.2846 14.708 11.3181 14.6956 11.3468 14.6754L13.9872 12.9147C14.1914 12.778 14.4266 12.6946 14.6713 12.6721C14.916 12.6496 15.1625 12.6888 15.3882 12.786L20.328 14.9032C20.6216 15.0293 20.8664 15.2471 21.0258 15.524C21.1853 15.8009 21.2509 16.1219 21.2127 16.4391ZM19.957 16.2805C19.9617 16.2358 19.9518 16.1908 19.9288 16.1522C19.9058 16.1136 19.8709 16.0835 19.8293 16.0664L14.8896 13.9493C14.8573 13.9355 14.8221 13.93 14.7872 13.9332C14.7522 13.9364 14.7186 13.9482 14.6894 13.9677L12.049 15.7285C11.8369 15.8704 11.5916 15.9548 11.3371 15.9733C11.0826 15.9919 10.8276 15.944 10.5971 15.8344C8.67717 14.9039 7.12387 13.3576 6.18475 11.4419C6.07465 11.2128 6.02563 10.9592 6.04245 10.7056C6.05926 10.452 6.14134 10.207 6.28072 9.99446L8.03519 7.31345C8.05431 7.28433 8.0659 7.25093 8.06894 7.21623C8.07197 7.18154 8.06636 7.14663 8.0526 7.11464L5.93373 2.17068C5.918 2.13302 5.89164 2.10075 5.85787 2.07783C5.8241 2.0549 5.78438 2.04231 5.74357 2.04159C5.73556 2.04161 5.72757 2.04214 5.71963 2.04317C4.65109 2.18077 3.66919 2.70267 2.95736 3.51138C2.24553 4.32008 1.85245 5.36027 1.85156 6.43763C1.85567 10.0727 3.30152 13.5578 5.87193 16.1282C8.44235 18.6986 11.9274 20.1445 15.5625 20.1486C16.6399 20.1477 17.6801 19.7546 18.4888 19.0428C19.2975 18.3309 19.8194 17.349 19.957 16.2805Z" fill="#5A5A5A"/>
</svg>
