<svg width="21" height="17" viewBox="0 0 21 17" fill="none" xmlns="http://www.w3.org/2000/svg">
<path d="M19.1635 0.747249C18.9152 0.763306 18.6715 0.815084 18.4419 0.900561H18.4388C18.2183 0.978249 17.1703 1.37012 15.577 1.96412L9.86753 4.10156C5.77063 5.63469 1.74334 7.14444 1.74334 7.14444L1.79129 7.12794C1.79129 7.12794 1.51363 7.20906 1.22359 7.38575C1.04441 7.4871 0.890219 7.61971 0.770357 7.77556C0.628044 7.96119 0.513575 8.24512 0.556115 8.53869C0.625724 9.03506 0.987693 9.33275 1.24757 9.49706C1.51054 9.66344 1.76113 9.74112 1.76113 9.74112H1.76732L5.54401 10.8721C5.7134 11.3554 6.69489 14.2236 6.93079 14.8843C7.07 15.2789 7.20536 15.5258 7.37474 15.7141C7.45672 15.8104 7.55263 15.8908 7.66787 15.9554C7.72778 15.9864 7.79166 16.0109 7.85814 16.0283L7.81947 16.0201C7.83107 16.0228 7.84035 16.0311 7.84886 16.0338C7.87979 16.0414 7.90068 16.0441 7.94012 16.0496C8.53799 16.2105 9.01829 15.8805 9.01829 15.8805L9.04536 15.8612L11.2752 14.0566L15.0124 16.6051L15.0975 16.6374C15.8764 16.9413 16.6653 16.7722 17.0822 16.4738C17.5021 16.1734 17.6653 15.7891 17.6653 15.7891L17.6924 15.7272L20.5804 2.576C20.6624 2.2515 20.6833 1.94762 20.5928 1.65269C20.4995 1.35419 20.284 1.09747 19.9887 0.932874C19.7408 0.798891 19.4533 0.73422 19.1635 0.747249ZM19.0854 2.15662C19.0823 2.19994 19.0915 2.19512 19.0699 2.27831V2.28587L16.2089 15.3002C16.1966 15.3188 16.1757 15.3594 16.1185 15.3999C16.0581 15.4426 16.0102 15.4694 15.7588 15.3807L11.1878 12.2656L8.42661 14.5027L9.00669 11.2096L16.475 5.02212C16.7828 4.76775 16.68 4.71412 16.68 4.71412C16.7016 4.402 16.2151 4.62269 16.2151 4.62269L6.79776 9.8085L6.79466 9.79475L2.28088 8.44381V8.44106L2.26928 8.439C2.27719 8.43666 2.28494 8.43391 2.29248 8.43075L2.31723 8.41975L2.34121 8.41219C2.34121 8.41219 6.37159 6.90244 10.4685 5.36931C12.5196 4.60137 14.5863 3.82794 16.1757 3.23119C17.7651 2.63787 18.94 2.20269 19.0065 2.17931C19.0699 2.15731 19.0397 2.15731 19.0854 2.15731V2.15662Z" fill="white"/>
</svg>
