<svg width="19" height="17" viewBox="0 0 19 17" fill="none" xmlns="http://www.w3.org/2000/svg">
<path d="M16.9231 0.747249C16.7024 0.763306 16.4858 0.815084 16.2816 0.900561H16.2789C16.083 0.978249 15.1514 1.37012 13.7351 1.96412L8.66002 4.10156C5.01833 5.63469 1.43852 7.14444 1.43852 7.14444L1.48115 7.12794C1.48115 7.12794 1.23433 7.20906 0.976522 7.38575C0.817247 7.4871 0.680191 7.61971 0.573647 7.77556C0.447147 7.96119 0.345397 8.24512 0.38321 8.53869C0.445085 9.03506 0.766834 9.33275 0.997834 9.49706C1.23158 9.66344 1.45433 9.74112 1.45433 9.74112H1.45983L4.8169 10.8721C4.96746 11.3554 5.8399 14.2236 6.04958 14.8843C6.17333 15.2789 6.29365 15.5258 6.44421 15.7141C6.51708 15.8104 6.60233 15.8908 6.70477 15.9554C6.75803 15.9864 6.81481 16.0109 6.8739 16.0283L6.83952 16.0201C6.84983 16.0228 6.85808 16.0311 6.86565 16.0338C6.89315 16.0414 6.91171 16.0441 6.94677 16.0496C7.47821 16.2105 7.90515 15.8805 7.90515 15.8805L7.92921 15.8612L9.91127 14.0566L13.2333 16.6051L13.3089 16.6374C14.0012 16.9413 14.7025 16.7722 15.073 16.4738C15.4463 16.1734 15.5914 15.7891 15.5914 15.7891L15.6155 15.7272L18.1826 2.576C18.2555 2.2515 18.274 1.94762 18.1936 1.65269C18.1106 1.35419 17.9191 1.09747 17.6566 0.932874C17.4363 0.798891 17.1807 0.73422 16.9231 0.747249ZM16.8536 2.15662C16.8509 2.19994 16.8591 2.19512 16.8399 2.27831V2.28587L14.2968 15.3002C14.2858 15.3188 14.2673 15.3594 14.2164 15.3999C14.1628 15.4426 14.1201 15.4694 13.8967 15.3807L9.83358 12.2656L7.37921 14.5027L7.89483 11.2096L14.5333 5.02212C14.807 4.76775 14.7155 4.71412 14.7155 4.71412C14.7348 4.402 14.3023 4.62269 14.3023 4.62269L5.93133 9.8085L5.92858 9.79475L1.91633 8.44381V8.44106L1.90602 8.439C1.91306 8.43666 1.91994 8.43391 1.92665 8.43075L1.94865 8.41975L1.96996 8.41219C1.96996 8.41219 5.55252 6.90244 9.19421 5.36931C11.0175 4.60137 12.8545 3.82794 14.2673 3.23119C15.6801 2.63787 16.7244 2.20269 16.7835 2.17931C16.8399 2.15731 16.8131 2.15731 16.8536 2.15731V2.15662Z" fill="#313131" fill-opacity="0.8"/>
</svg>
