<svg width="25" height="24" viewBox="0 0 25 24" fill="none" xmlns="http://www.w3.org/2000/svg">
<g clip-path="url(#clip0)">
<path d="M13.6363 2.18188C7.47611 2.18188 2.27271 7.17716 2.27271 13.091C2.27271 16.5699 4.0818 19.7215 6.81816 21.7353V21.8182H6.93407C8.82952 23.1764 11.1511 24.0001 13.6363 24.0001C16.1216 24.0001 18.4432 23.1764 20.3386 21.8182H20.4545V21.7353C23.1909 19.7215 25 16.571 25 13.091C25 7.17716 19.7966 2.18188 13.6363 2.18188ZM9.17498 20.6477C9.34244 19.9205 9.76309 19.2698 10.3676 18.803C10.972 18.3361 11.7242 18.081 12.5 18.0797H14.7727C15.5484 18.0812 16.3005 18.3364 16.9049 18.8032C17.5094 19.27 17.9301 19.9206 18.0977 20.6477C16.7704 21.3862 15.2454 21.8182 13.6363 21.8182C12.0273 21.8182 10.5023 21.3862 9.17498 20.6477ZM20.0113 19.2448C19.5779 18.2541 18.8497 17.4082 17.9179 16.8128C16.986 16.2175 15.892 15.8992 14.7727 15.8979H12.5C11.3807 15.8992 10.2866 16.2175 9.35483 16.8128C8.42301 17.4082 7.6948 18.2541 7.26134 19.2448C5.5943 17.6532 4.54543 15.4648 4.54543 13.091C4.54543 8.3597 8.70793 4.3637 13.6363 4.3637C18.5648 4.3637 22.7273 8.3597 22.7273 13.091C22.7273 15.4648 21.6784 17.6532 20.0113 19.2448Z" fill="#313131" fill-opacity="0.8"/>
<path d="M13.6364 6.54541C11.0455 6.54541 9.09094 8.42177 9.09094 10.909C9.09094 13.3963 11.0455 15.2727 13.6364 15.2727C16.2273 15.2727 18.1819 13.3963 18.1819 10.909C18.1819 8.42177 16.2273 6.54541 13.6364 6.54541ZM13.6364 13.0909C12.2978 13.0909 11.3637 12.1941 11.3637 10.909C11.3637 9.62396 12.2978 8.72723 13.6364 8.72723C14.975 8.72723 15.9091 9.62396 15.9091 10.909C15.9091 12.1941 14.975 13.0909 13.6364 13.0909Z" fill="#313131" fill-opacity="0.8"/>
</g>
<defs>
<clipPath id="clip0">
<rect width="25" height="24" fill="white"/>
</clipPath>
</defs>
</svg>
