<svg width="34" height="21" viewBox="0 0 34 21" fill="none" xmlns="http://www.w3.org/2000/svg">
<path d="M3.9375 0.1875C1.98406 0.1875 0.375 1.58484 0.375 3.28125V17.7188C0.375 19.4152 1.98406 20.8125 3.9375 20.8125H30.0625C32.0159 20.8125 33.625 19.4152 33.625 17.7188V3.28125C33.625 1.58484 32.0159 0.1875 30.0625 0.1875H3.9375ZM3.9375 2.25H30.0625C30.7334 2.25 31.25 2.69859 31.25 3.28125V17.7188C31.25 18.3014 30.7334 18.75 30.0625 18.75H3.9375C3.26656 18.75 2.75 18.3014 2.75 17.7188V3.28125C2.75 2.69859 3.26656 2.25 3.9375 2.25ZM21.0446 6.76172C18.7575 6.76172 17.5569 7.74141 17.5569 8.98509C17.5569 11.2363 20.5969 10.9238 20.5969 12.0788C20.5969 12.2779 20.4069 12.7254 19.1482 12.7254C17.8894 12.7254 17.0701 12.3387 17.0701 12.3387L16.7019 13.8237C16.7019 13.8237 17.4797 14.2414 19.0413 14.2414C20.5969 14.2414 22.7867 13.2019 22.7867 11.6942C22.7867 9.88331 19.7431 9.76369 19.7431 8.95622C19.7431 8.54372 20.1469 8.21372 21.2275 8.21372C21.9329 8.21372 22.7119 8.69841 22.7119 8.69841L23.0848 7.12059C23.0848 7.12059 22.0516 6.76481 21.0422 6.76481L21.0446 6.76172ZM11.2857 6.89062L9.28125 11.9829C9.28125 11.9829 9.1815 11.5416 9.13281 11.2734C7.99875 9.06656 6.16406 8.24363 6.16406 8.24363L7.90969 14.0124H10.2847L13.6216 6.89062H11.2881H11.2857ZM14.4766 6.89062L13.1774 14.0124H15.3696L16.6675 6.89062H14.4766ZM26.2779 6.89062L22.7154 14.0124H24.8672L25.3125 13.0142H28.0592L28.2812 14.0124H30.2477L28.5781 6.89062H26.2768H26.2779ZM3.75106 6.92156C3.75106 6.92156 8.0225 8.06109 9.02119 10.8547L8.28137 7.63209C8.28137 7.63209 7.95481 6.92053 7.09387 6.92053H3.75225L3.75106 6.92156ZM27.0938 8.95312L27.7231 11.6282H25.9419L27.0938 8.95312Z" fill="white" fill-opacity="0.7"/>
</svg>
