<svg width="38" height="33" viewBox="0 0 38 33" fill="none" xmlns="http://www.w3.org/2000/svg">
<path d="M5.9375 6.1875C3.98406 6.1875 2.375 7.58484 2.375 9.28125V23.7188C2.375 25.4152 3.98406 26.8125 5.9375 26.8125H32.0625C34.0159 26.8125 35.625 25.4152 35.625 23.7188V9.28125C35.625 7.58484 34.0159 6.1875 32.0625 6.1875H5.9375ZM5.9375 8.25H32.0625C32.7334 8.25 33.25 8.69859 33.25 9.28125V23.7188C33.25 24.3014 32.7334 24.75 32.0625 24.75H5.9375C5.26656 24.75 4.75 24.3014 4.75 23.7188V9.28125C4.75 8.69859 5.26656 8.25 5.9375 8.25ZM23.0446 12.7617C20.7575 12.7617 19.5569 13.7414 19.5569 14.9851C19.5569 17.2363 22.5969 16.9238 22.5969 18.0788C22.5969 18.2779 22.4069 18.7254 21.1482 18.7254C19.8894 18.7254 19.0701 18.3387 19.0701 18.3387L18.7019 19.8237C18.7019 19.8237 19.4797 20.2414 21.0413 20.2414C22.5969 20.2414 24.7867 19.2019 24.7867 17.6942C24.7867 15.8833 21.7431 15.7637 21.7431 14.9562C21.7431 14.5437 22.1469 14.2137 23.2275 14.2137C23.9329 14.2137 24.7119 14.6984 24.7119 14.6984L25.0848 13.1206C25.0848 13.1206 24.0516 12.7648 23.0422 12.7648L23.0446 12.7617ZM13.2857 12.8906L11.2812 17.9829C11.2812 17.9829 11.1815 17.5416 11.1328 17.2734C9.99875 15.0666 8.16406 14.2436 8.16406 14.2436L9.90969 20.0124H12.2847L15.6216 12.8906H13.2881H13.2857ZM16.4766 12.8906L15.1774 20.0124H17.3696L18.6675 12.8906H16.4766ZM28.2779 12.8906L24.7154 20.0124H26.8672L27.3125 19.0142H30.0592L30.2812 20.0124H32.2477L30.5781 12.8906H28.2768H28.2779ZM5.75106 12.9216C5.75106 12.9216 10.0225 14.0611 11.0212 16.8547L10.2814 13.6321C10.2814 13.6321 9.95481 12.9205 9.09387 12.9205H5.75225L5.75106 12.9216ZM29.0938 14.9531L29.7231 17.6282H27.9419L29.0938 14.9531Z" fill="#C4C4C4"/>
</svg>
