<svg width="20" height="18" viewBox="0 0 20 18" fill="none" xmlns="http://www.w3.org/2000/svg">
<path fill-rule="evenodd" clip-rule="evenodd" d="M16.4781 3.16361C15.6205 2.39625 14.6 1.7878 13.476 1.3735C12.3519 0.959193 11.1465 0.747277 9.92966 0.750026C4.82703 0.750026 0.673156 4.44144 0.671094 8.97894C0.671094 10.4291 1.097 11.8444 1.90653 13.0929L0.59375 17.3564L5.50147 16.2114C6.859 16.8683 8.37989 17.2128 9.92553 17.2134H9.92966C15.0312 17.2134 19.1851 13.5219 19.1872 8.98444C19.1907 7.90322 18.9531 6.8321 18.4881 5.833C18.0231 4.83389 17.3399 3.92662 16.4781 3.16361ZM9.92966 15.8246H9.92656C8.54831 15.8247 7.19543 15.4951 6.00987 14.8704L5.72937 14.7219L2.81712 15.4011L3.59366 12.8775L3.41112 12.619C2.64056 11.5286 2.23265 10.2667 2.23447 8.97894C2.23653 5.20778 5.68812 2.13969 9.93275 2.13969C10.9436 2.1377 11.9449 2.31393 12.8787 2.65821C13.8124 3.00248 14.6601 3.50795 15.3726 4.14536C16.0889 4.77973 16.6567 5.53401 17.0431 6.36461C17.4295 7.1952 17.6269 8.08564 17.6238 8.98444C17.6217 12.7556 14.1702 15.8246 9.92966 15.8246ZM14.1506 10.7014C13.9185 10.5978 12.7821 10.1009 12.5697 10.0322C12.3582 9.96344 12.2046 9.92953 12.0499 10.1349C11.8952 10.3402 11.4518 10.8031 11.3167 10.9406C11.1816 11.0781 11.0465 11.0946 10.8155 10.9919C10.5845 10.8893 9.83891 10.672 8.95512 9.97169C8.26728 9.42628 7.80322 8.75344 7.66812 8.54719C7.53303 8.34094 7.65369 8.23003 7.77022 8.12736C7.87437 8.03569 8.00122 7.88719 8.11672 7.76711C8.23222 7.64703 8.27037 7.56178 8.34772 7.42428C8.42506 7.28678 8.38691 7.16669 8.32812 7.06402C8.27037 6.96044 7.80734 5.94844 7.6145 5.53686C7.42784 5.13811 7.23706 5.19128 7.09475 5.18578C6.94736 5.18042 6.79985 5.17797 6.65234 5.17844C6.53504 5.1811 6.41963 5.20527 6.31333 5.24944C6.20703 5.2936 6.11215 5.35682 6.03462 5.43511C5.82219 5.64136 5.22509 6.13819 5.22509 7.15019C5.22509 8.16219 6.05422 9.14028 6.16972 9.27778C6.28522 9.41528 7.80116 11.4915 10.1215 12.3825C10.6742 12.5943 11.1053 12.7208 11.4404 12.8161C11.9942 12.9729 12.4985 12.9499 12.8976 12.8977C13.3421 12.839 14.2661 12.4009 14.4589 11.9205C14.6517 11.4402 14.6517 11.0286 14.594 10.9424C14.5362 10.8563 14.3805 10.804 14.1506 10.7014Z" fill="white"/>
</svg>
